<?xml version="1.0" standalone="no"?>
<!DOCTYPE svg PUBLIC "-//W3C//DTD SVG 1.1//EN" "http://www.w3.org/Graphics/SVG/1.1/DTD/svg11.dtd" >
<svg xmlns="http://www.w3.org/2000/svg">
<metadata>Generated by IcoMoon</metadata>
<defs>
<font id="mapz01" horiz-adv-x="1024">
<font-face units-per-em="1024" ascent="960" descent="-64" />
<missing-glyph horiz-adv-x="1024" />
<glyph unicode="&#x20;" d="" horiz-adv-x="512" />
<glyph unicode="&#xe600;" d="M970.857 917.714q0-20-24.571-44.571l-361.143-361.143v-438.857h182.857q14.857 0 25.714-10.857t10.857-25.714-10.857-25.714-25.714-10.857h-512q-14.857 0-25.714 10.857t-10.857 25.714 10.857 25.714 25.714 10.857h182.857v438.857l-361.143 361.143q-24.571 24.571-24.571 44.571 0 13.143 10.286 20.857t21.714 10 24.571 2.286h804.571q13.143 0 24.571-2.286t21.714-10 10.286-20.857z" />
<glyph unicode="&#xe601;" d="M877.714 896v-640q0-28.571-19.429-50.857t-49.143-34.571-59.143-18.286-55.143-6-55.143 6-59.143 18.286-49.143 34.571-19.429 50.857 19.429 50.857 49.143 34.571 59.143 18.286 55.143 6q60 0 109.714-22.286v306.857l-438.857-135.429v-405.143q0-28.571-19.429-50.857t-49.143-34.571-59.143-18.286-55.143-6-55.143 6-59.143 18.286-49.143 34.571-19.429 50.857 19.429 50.857 49.143 34.571 59.143 18.286 55.143 6q60 0 109.714-22.286v552.571q0 17.714 10.857 32.286t28 20.286l475.429 146.286q6.857 2.286 16 2.286 22.857 0 38.857-16t16-38.857z" horiz-adv-x="878" />
<glyph unicode="&#xe602;" d="M658.286 548.571q0 105.714-75.143 180.857t-180.857 75.143-180.857-75.143-75.143-180.857 75.143-180.857 180.857-75.143 180.857 75.143 75.143 180.857zM950.857 73.143q0-29.714-21.714-51.429t-51.429-21.714q-30.857 0-51.429 21.714l-196 195.429q-102.286-70.857-228-70.857-81.714 0-156.286 31.714t-128.571 85.714-85.714 128.571-31.714 156.286 31.714 156.286 85.714 128.571 128.571 85.714 156.286 31.714 156.286-31.714 128.571-85.714 85.714-128.571 31.714-156.286q0-125.714-70.857-228l196-196q21.143-21.143 21.143-51.429z" horiz-adv-x="951" />
<glyph unicode="&#xe603;" d="M950.857 164.571v438.857q-18.286-20.571-39.429-37.714-153.143-117.714-243.429-193.143-29.143-24.571-47.429-38.286t-49.429-27.714-58.571-14h-1.143q-27.429 0-58.571 14t-49.429 27.714-47.429 38.286q-90.286 75.429-243.429 193.143-21.143 17.143-39.429 37.714v-438.857q0-7.429 5.429-12.857t12.857-5.429h841.143q7.429 0 12.857 5.429t5.429 12.857zM950.857 765.143v14t-0.286 7.429-1.714 7.143-3.143 5.143-5.143 4.286-8 1.429h-841.143q-7.429 0-12.857-5.429t-5.429-12.857q0-96 84-162.286 110.286-86.857 229.143-181.143 3.429-2.857 20-16.857t26.286-21.429 25.429-18 28.857-15.714 24.571-5.143h1.142q11.429 0 24.571 5.143t28.857 15.714 25.429 18 26.286 21.429 20 16.857q118.857 94.286 229.143 181.143 30.857 24.571 57.429 66t26.571 75.143zM1024 786.286v-621.714q0-37.714-26.857-64.571t-64.571-26.857h-841.143q-37.714 0-64.571 26.857t-26.857 64.571v621.714q0 37.714 26.857 64.571t64.571 26.857h841.143q37.714 0 64.571-26.857t26.857-64.571z" />
<glyph unicode="&#xe604;" d="M512 73.143q-14.857 0-25.143 10.286l-356.571 344q-5.714 4.571-15.714 14.857t-31.714 37.429-38.857 55.714-30.571 69.143-13.429 78.857q0 125.714 72.571 196.571t200.571 70.857q35.429 0 72.286-12.286t68.571-33.143 54.571-39.143 43.429-38.857q20.571 20.571 43.429 38.857t54.571 39.143 68.571 33.143 72.286 12.286q128 0 200.571-70.857t72.571-196.571q0-126.286-130.857-257.143l-356-342.857q-10.286-10.286-25.143-10.286z" />
<glyph unicode="&#xe605;" d="M950.857 654.286q0-12.571-14.857-27.429l-207.429-202.286 49.143-285.714q0.571-4 0.571-11.429 0-12-6-20.286t-17.429-8.286q-10.857 0-22.857 6.857l-256.571 134.857-256.571-134.857q-12.571-6.857-22.857-6.857-12 0-18 8.286t-6 20.286q0 3.429 1.143 11.429l49.143 285.714-208 202.286q-14.286 15.429-14.286 27.429 0 21.143 32 26.286l286.857 41.714 128.571 260q10.857 23.429 28 23.429t28-23.429l128.571-260 286.857-41.714q32-5.143 32-26.286z" horiz-adv-x="951" />
<glyph unicode="&#xe606;" d="M649.714 450.286l174.857 169.714-241.143 35.429-108 218.286-108-218.286-241.143-35.429 174.857-169.714-41.714-240.571 216 113.714 215.429-113.714zM950.857 654.286q0-12.571-14.857-27.429l-207.429-202.286 49.143-285.714q0.571-4 0.571-11.429 0-28.571-23.429-28.571-10.857 0-22.857 6.857l-256.571 134.857-256.571-134.857q-12.571-6.857-22.857-6.857-12 0-18 8.286t-6 20.286q0 3.429 1.143 11.429l49.143 285.714-208 202.286q-14.286 15.429-14.286 27.429 0 21.143 32 26.286l286.857 41.714 128.571 260q10.857 23.429 28 23.429t28-23.429l128.571-260 286.857-41.714q32-5.143 32-26.286z" horiz-adv-x="951" />
<glyph unicode="&#xe607;" d="M804.571 221.143q0-68.571-41.714-108.286t-110.857-39.714h-499.429q-69.143 0-110.857 39.714t-41.714 108.286q0 30.286 2 59.143t8 62.286 15.143 62 24.571 55.714 35.429 46.286 48.857 30.571 63.714 11.429q5.143 0 24-12.286t42.571-27.429 61.714-27.429 76.286-12.286 76.286 12.286 61.714 27.429 42.571 27.429 24 12.286q34.857 0 63.714-11.429t48.857-30.571 35.429-46.286 24.571-55.714 15.143-62 8-62.286 2-59.143zM621.714 731.429q0-90.857-64.286-155.143t-155.143-64.286-155.143 64.286-64.286 155.143 64.286 155.143 155.143 64.286 155.143-64.286 64.286-155.143z" horiz-adv-x="805" />
<glyph unicode="&#xe608;" d="M219.429 109.714v73.143q0 14.857-10.857 25.714t-25.714 10.857h-73.143q-14.857 0-25.714-10.857t-10.857-25.714v-73.143q0-14.857 10.857-25.714t25.714-10.857h73.143q14.857 0 25.714 10.857t10.857 25.714zM219.429 329.143v73.143q0 14.857-10.857 25.714t-25.714 10.857h-73.143q-14.857 0-25.714-10.857t-10.857-25.714v-73.143q0-14.857 10.857-25.714t25.714-10.857h73.143q14.857 0 25.714 10.857t10.857 25.714zM219.429 548.571v73.143q0 14.857-10.857 25.714t-25.714 10.857h-73.143q-14.857 0-25.714-10.857t-10.857-25.714v-73.143q0-14.857 10.857-25.714t25.714-10.857h73.143q14.857 0 25.714 10.857t10.857 25.714zM804.571 109.714v292.571q0 14.857-10.857 25.714t-25.714 10.857h-438.857q-14.857 0-25.714-10.857t-10.857-25.714v-292.571q0-14.857 10.857-25.714t25.714-10.857h438.857q14.857 0 25.714 10.857t10.857 25.714zM219.429 768v73.143q0 14.857-10.857 25.714t-25.714 10.857h-73.143q-14.857 0-25.714-10.857t-10.857-25.714v-73.143q0-14.857 10.857-25.714t25.714-10.857h73.143q14.857 0 25.714 10.857t10.857 25.714zM1024 109.714v73.143q0 14.857-10.857 25.714t-25.714 10.857h-73.143q-14.857 0-25.714-10.857t-10.857-25.714v-73.143q0-14.857 10.857-25.714t25.714-10.857h73.143q14.857 0 25.714 10.857t10.857 25.714zM804.571 548.571v292.571q0 14.857-10.857 25.714t-25.714 10.857h-438.857q-14.857 0-25.714-10.857t-10.857-25.714v-292.571q0-14.857 10.857-25.714t25.714-10.857h438.857q14.857 0 25.714 10.857t10.857 25.714zM1024 329.143v73.143q0 14.857-10.857 25.714t-25.714 10.857h-73.143q-14.857 0-25.714-10.857t-10.857-25.714v-73.143q0-14.857 10.857-25.714t25.714-10.857h73.143q14.857 0 25.714 10.857t10.857 25.714zM1024 548.571v73.143q0 14.857-10.857 25.714t-25.714 10.857h-73.143q-14.857 0-25.714-10.857t-10.857-25.714v-73.143q0-14.857 10.857-25.714t25.714-10.857h73.143q14.857 0 25.714 10.857t10.857 25.714zM1024 768v73.143q0 14.857-10.857 25.714t-25.714 10.857h-73.143q-14.857 0-25.714-10.857t-10.857-25.714v-73.143q0-14.857 10.857-25.714t25.714-10.857h73.143q14.857 0 25.714 10.857t10.857 25.714zM1097.143 859.429v-768q0-37.714-26.857-64.571t-64.571-26.857h-914.286q-37.714 0-64.571 26.857t-26.857 64.571v768q0 37.714 26.857 64.571t64.571 26.857h914.286q37.714 0 64.571-26.857t26.857-64.571z" horiz-adv-x="1097" />
<glyph unicode="&#xe609;" d="M438.857 438.857v-219.429q0-29.714-21.714-51.429t-51.429-21.714h-292.571q-29.714 0-51.429 21.714t-21.714 51.429v219.429q0 29.714 21.714 51.429t51.429 21.714h292.571q29.714 0 51.429-21.714t21.714-51.429zM438.857 877.714v-219.429q0-29.714-21.714-51.429t-51.429-21.714h-292.571q-29.714 0-51.429 21.714t-21.714 51.429v219.429q0 29.714 21.714 51.429t51.429 21.714h292.571q29.714 0 51.429-21.714t21.714-51.429zM950.857 438.857v-219.429q0-29.714-21.714-51.429t-51.429-21.714h-292.571q-29.714 0-51.429 21.714t-21.714 51.429v219.429q0 29.714 21.714 51.429t51.429 21.714h292.571q29.714 0 51.429-21.714t21.714-51.429zM950.857 877.714v-219.429q0-29.714-21.714-51.429t-51.429-21.714h-292.571q-29.714 0-51.429 21.714t-21.714 51.429v219.429q0 29.714 21.714 51.429t51.429 21.714h292.571q29.714 0 51.429-21.714t21.714-51.429z" horiz-adv-x="951" />
<glyph unicode="&#xe60a;" d="M292.571 310.857v-109.714q0-22.857-16-38.857t-38.857-16h-182.857q-22.857 0-38.857 16t-16 38.857v109.714q0 22.857 16 38.857t38.857 16h182.857q22.857 0 38.857-16t16-38.857zM292.571 603.429v-109.714q0-22.857-16-38.857t-38.857-16h-182.857q-22.857 0-38.857 16t-16 38.857v109.714q0 22.857 16 38.857t38.857 16h182.857q22.857 0 38.857-16t16-38.857zM658.286 310.857v-109.714q0-22.857-16-38.857t-38.857-16h-182.857q-22.857 0-38.857 16t-16 38.857v109.714q0 22.857 16 38.857t38.857 16h182.857q22.857 0 38.857-16t16-38.857zM292.571 896v-109.714q0-22.857-16-38.857t-38.857-16h-182.857q-22.857 0-38.857 16t-16 38.857v109.714q0 22.857 16 38.857t38.857 16h182.857q22.857 0 38.857-16t16-38.857zM658.286 603.429v-109.714q0-22.857-16-38.857t-38.857-16h-182.857q-22.857 0-38.857 16t-16 38.857v109.714q0 22.857 16 38.857t38.857 16h182.857q22.857 0 38.857-16t16-38.857zM1024 310.857v-109.714q0-22.857-16-38.857t-38.857-16h-182.857q-22.857 0-38.857 16t-16 38.857v109.714q0 22.857 16 38.857t38.857 16h182.857q22.857 0 38.857-16t16-38.857zM658.286 896v-109.714q0-22.857-16-38.857t-38.857-16h-182.857q-22.857 0-38.857 16t-16 38.857v109.714q0 22.857 16 38.857t38.857 16h182.857q22.857 0 38.857-16t16-38.857zM1024 603.429v-109.714q0-22.857-16-38.857t-38.857-16h-182.857q-22.857 0-38.857 16t-16 38.857v109.714q0 22.857 16 38.857t38.857 16h182.857q22.857 0 38.857-16t16-38.857zM1024 896v-109.714q0-22.857-16-38.857t-38.857-16h-182.857q-22.857 0-38.857 16t-16 38.857v109.714q0 22.857 16 38.857t38.857 16h182.857q22.857 0 38.857-16t16-38.857z" />
<glyph unicode="&#xe60b;" d="M292.571 310.857v-109.714q0-22.857-16-38.857t-38.857-16h-182.857q-22.857 0-38.857 16t-16 38.857v109.714q0 22.857 16 38.857t38.857 16h182.857q22.857 0 38.857-16t16-38.857zM292.571 603.429v-109.714q0-22.857-16-38.857t-38.857-16h-182.857q-22.857 0-38.857 16t-16 38.857v109.714q0 22.857 16 38.857t38.857 16h182.857q22.857 0 38.857-16t16-38.857zM1024 310.857v-109.714q0-22.857-16-38.857t-38.857-16h-548.571q-22.857 0-38.857 16t-16 38.857v109.714q0 22.857 16 38.857t38.857 16h548.571q22.857 0 38.857-16t16-38.857zM292.571 896v-109.714q0-22.857-16-38.857t-38.857-16h-182.857q-22.857 0-38.857 16t-16 38.857v109.714q0 22.857 16 38.857t38.857 16h182.857q22.857 0 38.857-16t16-38.857zM1024 603.429v-109.714q0-22.857-16-38.857t-38.857-16h-548.571q-22.857 0-38.857 16t-16 38.857v109.714q0 22.857 16 38.857t38.857 16h548.571q22.857 0 38.857-16t16-38.857zM1024 896v-109.714q0-22.857-16-38.857t-38.857-16h-548.571q-22.857 0-38.857 16t-16 38.857v109.714q0 22.857 16 38.857t38.857 16h548.571q22.857 0 38.857-16t16-38.857z" />
<glyph unicode="&#xe60c;" d="M954.857 700.571q0-22.857-16-38.857l-491.429-491.429q-16-16-38.857-16t-38.857 16l-284.571 284.571q-16 16-16 38.857t16 38.857l77.714 77.714q16 16 38.857 16t38.857-16l168-168.571 374.857 375.429q16 16 38.857 16t38.857-16l77.714-77.714q16-16 16-38.857z" />
<glyph unicode="&#xe60d;" d="M741.714 268.571q0-22.857-16-38.857l-77.714-77.714q-16-16-38.857-16t-38.857 16l-168 168-168-168q-16-16-38.857-16t-38.857 16l-77.714 77.714q-16 16-16 38.857t16 38.857l168 168-168 168q-16 16-16 38.857t16 38.857l77.714 77.714q16 16 38.857 16t38.857-16l168-168 168 168q16 16 38.857 16t38.857-16l77.714-77.714q16-16 16-38.857t-16-38.857l-168-168 168-168q16-16 16-38.857z" horiz-adv-x="805" />
<glyph unicode="&#xe60e;" d="M585.143 566.857v-36.571q0-7.429-5.429-12.857t-12.857-5.429h-128v-128q0-7.429-5.429-12.857t-12.857-5.429h-36.571q-7.429 0-12.857 5.429t-5.429 12.857v128h-128q-7.429 0-12.857 5.429t-5.429 12.857v36.571q0 7.429 5.429 12.857t12.857 5.429h128v128q0 7.429 5.429 12.857t12.857 5.429h36.571q7.429 0 12.857-5.429t5.429-12.857v-128h128q7.429 0 12.857-5.429t5.429-12.857zM658.286 548.571q0 105.714-75.143 180.857t-180.857 75.143-180.857-75.143-75.143-180.857 75.143-180.857 180.857-75.143 180.857 75.143 75.143 180.857zM950.857 73.143q0-30.286-21.429-51.714t-51.714-21.429q-30.857 0-51.429 21.714l-196 195.429q-102.286-70.857-228-70.857-81.714 0-156.286 31.714t-128.571 85.714-85.714 128.571-31.714 156.286 31.714 156.286 85.714 128.571 128.571 85.714 156.286 31.714 156.286-31.714 128.571-85.714 85.714-128.571 31.714-156.286q0-125.714-70.857-228l196-196q21.143-21.143 21.143-51.429z" horiz-adv-x="951" />
<glyph unicode="&#xe60f;" d="M585.143 566.857v-36.571q0-7.429-5.429-12.857t-12.857-5.429h-329.143q-7.429 0-12.857 5.429t-5.429 12.857v36.571q0 7.429 5.429 12.857t12.857 5.429h329.143q7.429 0 12.857-5.429t5.429-12.857zM658.286 548.571q0 105.714-75.143 180.857t-180.857 75.143-180.857-75.143-75.143-180.857 75.143-180.857 180.857-75.143 180.857 75.143 75.143 180.857zM950.857 73.143q0-30.286-21.429-51.714t-51.714-21.429q-30.857 0-51.429 21.714l-196 195.429q-102.286-70.857-228-70.857-81.714 0-156.286 31.714t-128.571 85.714-85.714 128.571-31.714 156.286 31.714 156.286 85.714 128.571 128.571 85.714 156.286 31.714 156.286-31.714 128.571-85.714 85.714-128.571 31.714-156.286q0-125.714-70.857-228l196-196q21.143-21.143 21.143-51.429z" horiz-adv-x="951" />
<glyph unicode="&#xe610;" d="M877.714 512q0-89.143-34.857-170.286t-93.714-140-140-93.714-170.286-34.857-170.286 34.857-140 93.714-93.714 140-34.857 170.286q0 104 46 196t129.429 154.286q24.571 18.286 54.571 14.286t47.714-28.571q18.286-24 14-54t-28.286-48.286q-56-42.286-86.571-103.429t-30.571-130.286q0-59.429 23.143-113.429t62.571-93.429 93.429-62.571 113.429-23.143 113.429 23.143 93.429 62.571 62.571 93.429 23.143 113.429q0 69.143-30.571 130.286t-86.571 103.429q-24 18.286-28.286 48.286t14 54q17.714 24.571 48 28.571t54.286-14.286q83.429-62.286 129.429-154.286t46-196zM512 950.857v-365.714q0-29.714-21.714-51.429t-51.429-21.714-51.429 21.714-21.714 51.429v365.714q0 29.714 21.714 51.429t51.429 21.714 51.429-21.714 21.714-51.429z" horiz-adv-x="878" />
<glyph unicode="&#xe611;" d="M146.286 201.143v-109.714q0-8-5.143-13.143t-13.143-5.143h-109.714q-8 0-13.143 5.143t-5.143 13.143v109.714q0 8 5.143 13.143t13.143 5.143h109.714q8 0 13.143-5.143t5.143-13.143zM365.714 274.286v-182.857q0-8-5.143-13.143t-13.143-5.143h-109.714q-8 0-13.143 5.143t-5.143 13.143v182.857q0 8 5.143 13.143t13.143 5.143h109.714q8 0 13.143-5.143t5.143-13.143zM585.143 420.571v-329.143q0-8-5.143-13.143t-13.143-5.143h-109.714q-8 0-13.143 5.143t-5.143 13.143v329.143q0 8 5.143 13.143t13.143 5.143h109.714q8 0 13.143-5.143t5.143-13.143zM804.571 640v-548.571q0-8-5.143-13.143t-13.143-5.143h-109.714q-8 0-13.143 5.143t-5.143 13.143v548.571q0 8 5.143 13.143t13.143 5.143h109.714q8 0 13.143-5.143t5.143-13.143zM1024 932.571v-841.143q0-8-5.143-13.143t-13.143-5.143h-109.714q-8 0-13.143 5.143t-5.143 13.143v841.143q0 8 5.143 13.143t13.143 5.143h109.714q8 0 13.143-5.143t5.143-13.143z" />
<glyph unicode="&#xe612;" d="M585.143 512q0 60.571-42.857 103.429t-103.429 42.857-103.429-42.857-42.857-103.429 42.857-103.429 103.429-42.857 103.429 42.857 42.857 103.429zM877.714 574.286v-126.857q0-6.857-4.571-13.143t-11.429-7.429l-105.714-16q-10.857-30.857-22.286-52 20-28.571 61.143-78.857 5.714-6.857 5.714-14.286t-5.143-13.143q-15.429-21.143-56.571-61.714t-53.714-40.571q-6.857 0-14.857 5.143l-78.857 61.714q-25.143-13.143-52-21.714-9.143-77.714-16.571-106.286-4-16-20.571-16h-126.857q-8 0-14 4.857t-6.571 12.286l-16 105.143q-28 9.143-51.429 21.143l-80.571-61.143q-5.714-5.143-14.286-5.143-8 0-14.286 6.286-72 65.143-94.286 96-4 5.714-4 13.143 0 6.857 4.571 13.143 8.571 12 29.143 38t30.857 40.286q-15.429 28.571-23.429 56.571l-104.571 15.429q-7.429 1.143-12 7.143t-4.571 13.429v126.857q0 6.857 4.571 13.143t10.857 7.429l106.286 16q8 26.286 22.286 52.571-22.857 32.571-61.143 78.857-5.714 6.857-5.714 13.714 0 5.714 5.143 13.143 14.857 20.571 56.286 61.429t54 40.857q7.429 0 14.857-5.714l78.857-61.143q25.143 13.143 52 21.714 9.143 77.714 16.571 106.286 4 16 20.571 16h126.857q8 0 14-4.857t6.571-12.286l16-105.143q28-9.143 51.429-21.143l81.143 61.143q5.143 5.143 13.714 5.143 7.429 0 14.286-5.714 73.714-68 94.286-97.143 4-4.571 4-12.571 0-6.857-4.571-13.143-8.571-12-29.143-38t-30.857-40.286q14.857-28.571 23.429-56l104.571-16q7.429-1.143 12-7.143t4.571-13.429z" horiz-adv-x="878" />
<glyph unicode="&#xe613;" d="M292.571 603.429v-329.143q0-8-5.143-13.143t-13.143-5.143h-36.571q-8 0-13.143 5.143t-5.143 13.143v329.143q0 8 5.143 13.143t13.143 5.143h36.571q8 0 13.143-5.143t5.143-13.143zM438.857 603.429v-329.143q0-8-5.143-13.143t-13.143-5.143h-36.571q-8 0-13.143 5.143t-5.143 13.143v329.143q0 8 5.143 13.143t13.143 5.143h36.571q8 0 13.143-5.143t5.143-13.143zM585.143 603.429v-329.143q0-8-5.143-13.143t-13.143-5.143h-36.571q-8 0-13.143 5.143t-5.143 13.143v329.143q0 8 5.143 13.143t13.143 5.143h36.571q8 0 13.143-5.143t5.143-13.143zM658.286 189.714v541.714h-512v-541.714q0-12.571 4-23.143t8.286-15.429 6-4.857h475.429q1.714 0 6 4.857t8.286 15.429 4 23.143zM274.286 804.571h256l-27.429 66.857q-4 5.143-9.714 6.286h-181.143q-5.714-1.143-9.714-6.286zM804.571 786.286v-36.571q0-8-5.143-13.143t-13.143-5.143h-54.857v-541.714q0-47.429-26.857-82t-64.571-34.571h-475.429q-37.714 0-64.571 33.429t-26.857 80.857v544h-54.857q-8 0-13.143 5.143t-5.143 13.143v36.571q0 8 5.143 13.143t13.143 5.143h176.571l40 95.429q8.571 21.143 30.857 36t45.143 14.857h182.857q22.857 0 45.143-14.857t30.857-36l40-95.429h176.571q8 0 13.143-5.143t5.143-13.143z" horiz-adv-x="805" />
<glyph unicode="&#xe614;" d="M804.571 457.143v-274.286q0-14.857-10.857-25.714t-25.714-10.857h-219.429v219.429h-146.286v-219.429h-219.429q-14.857 0-25.714 10.857t-10.857 25.714v274.286q0 0.571 0.286 1.714t0.286 1.714l328.571 270.857 328.571-270.857q0.571-1.143 0.571-3.429zM932 496.571l-35.429-42.286q-4.571-5.143-12-6.286h-1.714q-7.429 0-12 4l-395.429 329.714-395.429-329.714q-6.857-4.571-13.714-4-7.429 1.143-12 6.286l-35.429 42.286q-4.571 5.714-4 13.429t6.286 12.286l410.857 342.286q18.286 14.857 43.429 14.857t43.429-14.857l139.429-116.571v111.429q0 8 5.143 13.143t13.143 5.143h109.714q8 0 13.143-5.143t5.143-13.143v-233.143l125.143-104q5.714-4.571 6.286-12.286t-4-13.429z" horiz-adv-x="951" />
<glyph unicode="&#xe615;" d="M73.143 146.286h585.143v438.857h-237.714q-22.857 0-38.857 16t-16 38.857v237.714h-292.571v-731.429zM438.857 658.286h214.857q-5.714 16.571-12.571 23.429l-178.857 178.857q-6.857 6.857-23.429 12.571v-214.857zM731.429 640v-512q0-22.857-16-38.857t-38.857-16h-621.714q-22.857 0-38.857 16t-16 38.857v768q0 22.857 16 38.857t38.857 16h365.714q22.857 0 50.286-11.429t43.429-27.429l178.286-178.286q16-16 27.429-43.429t11.429-50.286z" horiz-adv-x="731" />
<glyph unicode="&#xe616;" d="M512 713.143v-256q0-8-5.143-13.143t-13.143-5.143h-182.857q-8 0-13.143 5.143t-5.143 13.143v36.571q0 8 5.143 13.143t13.143 5.143h128v201.143q0 8 5.143 13.143t13.143 5.143h36.571q8 0 13.143-5.143t5.143-13.143zM749.714 512q0 84.571-41.714 156t-113.143 113.143-156 41.714-156-41.714-113.143-113.143-41.714-156 41.714-156 113.143-113.143 156-41.714 156 41.714 113.143 113.143 41.714 156zM877.714 512q0-119.429-58.857-220.286t-159.714-159.714-220.286-58.857-220.286 58.857-159.714 159.714-58.857 220.286 58.857 220.286 159.714 159.714 220.286 58.857 220.286-58.857 159.714-159.714 58.857-220.286z" horiz-adv-x="878" />
<glyph unicode="&#xe617;" d="M634.857 454.857v2.286l-13.714 182.857q-0.571 7.429-6.286 12.857t-13.143 5.429h-106.286q-7.429 0-13.143-5.429t-6.286-12.857l-13.714-182.857v-2.286q-0.571-6.857 4.571-11.429t12-4.571h139.429q6.857 0 12 4.571t4.571 11.429zM1068.571 188q0-41.714-26.286-41.714h-402.286q7.429 0 12.571 5.429t4.571 12.857l-11.429 146.286q-0.571 7.429-6.286 12.857t-13.143 5.429h-155.429q-7.429 0-13.143-5.429t-6.286-12.857l-11.429-146.286q-0.571-7.429 4.571-12.857t12.571-5.429h-402.286q-26.286 0-26.286 41.714 0 30.857 14.857 66.286l238.286 596.571q4.571 10.857 14.857 18.857t21.714 8h193.714q-7.429 0-13.143-5.429t-6.286-12.857l-8.571-109.714q-0.571-8 4.571-13.143t12.571-5.143h94.857q7.429 0 12.571 5.143t4.571 13.143l-8.571 109.714q-0.571 7.429-6.286 12.857t-13.143 5.429h193.714q11.429 0 21.714-8t14.857-18.857l238.286-596.571q14.857-35.429 14.857-66.286z" horiz-adv-x="1097" />
<glyph unicode="&#xe618;" d="M731.429 256q0 14.857-10.857 25.714t-25.714 10.857-25.714-10.857-10.857-25.714 10.857-25.714 25.714-10.857 25.714 10.857 10.857 25.714zM877.714 256q0 14.857-10.857 25.714t-25.714 10.857-25.714-10.857-10.857-25.714 10.857-25.714 25.714-10.857 25.714 10.857 10.857 25.714zM950.857 384v-182.857q0-22.857-16-38.857t-38.857-16h-841.143q-22.857 0-38.857 16t-16 38.857v182.857q0 22.857 16 38.857t38.857 16h265.714l77.143-77.714q33.143-32 77.714-32t77.714 32l77.714 77.714h265.143q22.857 0 38.857-16t16-38.857zM765.143 709.143q9.714-23.429-8-40l-256-256q-10.286-10.857-25.714-10.857t-25.714 10.857l-256 256q-17.714 16.571-8 40 9.714 22.286 33.714 22.286h146.286v256q0 14.857 10.857 25.714t25.714 10.857h146.286q14.857 0 25.714-10.857t10.857-25.714v-256h146.286q24 0 33.714-22.286z" horiz-adv-x="951" />
<glyph unicode="&#xe619;" d="M640 493.714q0-6.857-5.714-13.714l-182.286-182.286q-6.286-5.143-13.143-5.143t-13.143 5.143l-182.857 182.857q-8.571 9.143-4 20 4.571 11.429 17.143 11.429h109.714v201.143q0 8 5.143 13.143t13.143 5.143h109.714q8 0 13.143-5.143t5.143-13.143v-201.143h109.714q8 0 13.143-5.143t5.143-13.143zM438.857 822.857q-84.571 0-156-41.714t-113.143-113.143-41.714-156 41.714-156 113.143-113.143 156-41.714 156 41.714 113.143 113.143 41.714 156-41.714 156-113.143 113.143-156 41.714zM877.714 512q0-119.429-58.857-220.286t-159.714-159.714-220.286-58.857-220.286 58.857-159.714 159.714-58.857 220.286 58.857 220.286 159.714 159.714 220.286 58.857 220.286-58.857 159.714-159.714 58.857-220.286z" horiz-adv-x="878" />
<glyph unicode="&#xe61a;" d="M638.857 523.429q-4.571-11.429-17.143-11.429h-109.714v-201.143q0-8-5.143-13.143t-13.143-5.143h-109.714q-8 0-13.143 5.143t-5.143 13.143v201.143h-109.714q-8 0-13.143 5.143t-5.143 13.143q0 6.857 5.714 13.714l182.286 182.286q6.286 5.143 13.143 5.143t13.143-5.143l182.857-182.857q8.571-9.143 4-20zM438.857 822.857q-84.571 0-156-41.714t-113.143-113.143-41.714-156 41.714-156 113.143-113.143 156-41.714 156 41.714 113.143 113.143 41.714 156-41.714 156-113.143 113.143-156 41.714zM877.714 512q0-119.429-58.857-220.286t-159.714-159.714-220.286-58.857-220.286 58.857-159.714 159.714-58.857 220.286 58.857 220.286 159.714 159.714 220.286 58.857 220.286-58.857 159.714-159.714 58.857-220.286z" horiz-adv-x="878" />
<glyph unicode="&#xe61b;" d="M584.571 475.429h180.571q-0.571 1.714-1.429 4.571t-1.429 4.571l-121.143 283.429h-404.571l-121.143-283.429q-0.571-1.143-1.429-4.571t-1.429-4.571h180.571l54.286-109.714h182.857zM877.714 458.286v-275.429q0-14.857-10.857-25.714t-25.714-10.857h-804.571q-14.857 0-25.714 10.857t-10.857 25.714v275.429q0 35.429 14.286 70.286l136 315.429q5.714 14.286 20.857 24t30 9.714h475.429q14.857 0 30-9.714t20.857-24l136-315.429q14.286-34.857 14.286-70.286z" horiz-adv-x="878" />
<glyph unicode="&#xe61c;" d="M676.571 512q0-21.143-18.286-31.429l-310.857-182.857q-8.571-5.143-18.286-5.143-9.143 0-18.286 4.571-18.286 10.857-18.286 32v365.714q0 21.143 18.286 32 18.857 10.286 36.571-0.571l310.857-182.857q18.286-10.286 18.286-31.429zM749.714 512q0 84.571-41.714 156t-113.143 113.143-156 41.714-156-41.714-113.143-113.143-41.714-156 41.714-156 113.143-113.143 156-41.714 156 41.714 113.143 113.143 41.714 156zM877.714 512q0-119.429-58.857-220.286t-159.714-159.714-220.286-58.857-220.286 58.857-159.714 159.714-58.857 220.286 58.857 220.286 159.714 159.714 220.286 58.857 220.286-58.857 159.714-159.714 58.857-220.286z" horiz-adv-x="878" />
<glyph unicode="&#xe61d;" d="M877.714 877.714v-256q0-14.857-10.857-25.714t-25.714-10.857h-256q-24 0-33.714 22.857-9.714 22.286 8 39.429l78.857 78.857q-84.571 78.286-199.429 78.286-59.429 0-113.429-23.143t-93.429-62.571-62.571-93.429-23.143-113.429 23.143-113.429 62.571-93.429 93.429-62.571 113.429-23.143q68 0 128.571 29.714t102.286 84q4 5.714 13.143 6.857 8 0 14.286-5.143l78.286-78.857q5.143-4.571 5.429-11.714t-4.286-12.857q-62.286-75.429-150.857-116.857t-186.857-41.429q-89.143 0-170.286 34.857t-140 93.714-93.714 140-34.857 170.286 34.857 170.286 93.714 140 140 93.714 170.286 34.857q84 0 162.571-31.714t139.714-89.429l74.286 73.714q16.571 17.714 40 8 22.286-9.714 22.286-33.714z" horiz-adv-x="878" />
<glyph unicode="&#xe61e;" d="M863.429 420.571q0-2.857-0.571-4-36.571-153.143-153.143-248.286t-273.143-95.143q-83.429 0-161.429 31.429t-139.143 89.714l-73.714-73.714q-10.857-10.857-25.714-10.857t-25.714 10.857-10.857 25.714v256q0 14.857 10.857 25.714t25.714 10.857h256q14.857 0 25.714-10.857t10.857-25.714-10.857-25.714l-78.286-78.286q40.571-37.714 92-58.286t106.857-20.571q76.571 0 142.857 37.143t106.286 102.286q6.286 9.714 30.286 66.857 4.571 13.143 17.143 13.143h109.714q7.429 0 12.857-5.429t5.429-12.857zM877.714 877.714v-256q0-14.857-10.857-25.714t-25.714-10.857h-256q-14.857 0-25.714 10.857t-10.857 25.714 10.857 25.714l78.857 78.857q-84.571 78.286-199.429 78.286-76.571 0-142.857-37.143t-106.286-102.286q-6.286-9.714-30.286-66.857-4.571-13.143-17.143-13.143h-113.714q-7.429 0-12.857 5.429t-5.429 12.857v4q37.143 153.143 154.286 248.286t274.286 95.143q83.429 0 162.286-31.714t140-89.429l74.286 73.714q10.857 10.857 25.714 10.857t25.714-10.857 10.857-25.714z" horiz-adv-x="878" />
<glyph unicode="&#xe61f;" d="M219.429 347.429v-36.571q0-7.429-5.429-12.857t-12.857-5.429h-36.571q-7.429 0-12.857 5.429t-5.429 12.857v36.571q0 7.429 5.429 12.857t12.857 5.429h36.571q7.429 0 12.857-5.429t5.429-12.857zM219.429 493.714v-36.571q0-7.429-5.429-12.857t-12.857-5.429h-36.571q-7.429 0-12.857 5.429t-5.429 12.857v36.571q0 7.429 5.429 12.857t12.857 5.429h36.571q7.429 0 12.857-5.429t5.429-12.857zM219.429 640v-36.571q0-7.429-5.429-12.857t-12.857-5.429h-36.571q-7.429 0-12.857 5.429t-5.429 12.857v36.571q0 7.429 5.429 12.857t12.857 5.429h36.571q7.429 0 12.857-5.429t5.429-12.857zM877.714 347.429v-36.571q0-7.429-5.429-12.857t-12.857-5.429h-548.571q-7.429 0-12.857 5.429t-5.429 12.857v36.571q0 7.429 5.429 12.857t12.857 5.429h548.571q7.429 0 12.857-5.429t5.429-12.857zM877.714 493.714v-36.571q0-7.429-5.429-12.857t-12.857-5.429h-548.571q-7.429 0-12.857 5.429t-5.429 12.857v36.571q0 7.429 5.429 12.857t12.857 5.429h548.571q7.429 0 12.857-5.429t5.429-12.857zM877.714 640v-36.571q0-7.429-5.429-12.857t-12.857-5.429h-548.571q-7.429 0-12.857 5.429t-5.429 12.857v36.571q0 7.429 5.429 12.857t12.857 5.429h548.571q7.429 0 12.857-5.429t5.429-12.857zM950.857 237.714v475.429q0 7.429-5.429 12.857t-12.857 5.429h-841.143q-7.429 0-12.857-5.429t-5.429-12.857v-475.429q0-7.429 5.429-12.857t12.857-5.429h841.143q7.429 0 12.857 5.429t5.429 12.857zM1024 859.429v-621.714q0-37.714-26.857-64.571t-64.571-26.857h-841.143q-37.714 0-64.571 26.857t-26.857 64.571v621.714q0 37.714 26.857 64.571t64.571 26.857h841.143q37.714 0 64.571-26.857t26.857-64.571z" />
<glyph unicode="&#xe620;" d="M182.857 585.143h292.571v109.714q0 60.571-42.857 103.429t-103.429 42.857-103.429-42.857-42.857-103.429v-109.714zM658.286 530.286v-329.143q0-22.857-16-38.857t-38.857-16h-548.571q-22.857 0-38.857 16t-16 38.857v329.143q0 22.857 16 38.857t38.857 16h18.286v109.714q0 105.143 75.429 180.571t180.571 75.429 180.571-75.429 75.429-180.571v-109.714h18.286q22.857 0 38.857-16t16-38.857z" horiz-adv-x="658" />
<glyph unicode="&#xe621;" d="M182.857 877.714q0-41.143-36.571-62.857v-723.429q0-7.429-5.429-12.857t-12.857-5.429h-36.571q-7.429 0-12.857 5.429t-5.429 12.857v723.429q-36.571 21.714-36.571 62.857 0 30.286 21.429 51.714t51.714 21.429 51.714-21.429 21.429-51.714zM1024 841.143v-436q0-14.286-7.143-22t-22.571-15.714q-122.857-66.286-210.857-66.286-34.857 0-70.571 12.571t-62 27.429-66 27.429-81.429 12.571q-109.714 0-265.143-83.429-9.714-5.143-18.857-5.143-14.857 0-25.714 10.857t-10.857 25.714v424q0 18.286 17.714 31.429 12 8 45.143 24.571 134.857 68.571 240.571 68.571 61.143 0 114.286-16.571t125.143-50.286q21.714-10.857 50.286-10.857 30.857 0 67.143 12t62.857 26.857 50.286 26.857 31.143 12q14.857 0 25.714-10.857t10.857-25.714z" />
<glyph unicode="&#xe622;" d="M950.857 517.714q0-94.857-34.286-179.429l-11.429-28-105.714-18.857q-12.571-47.429-51.714-78t-89.429-30.571v-18.286q0-8-5.143-13.143t-13.143-5.143h-36.571q-8 0-13.143 5.143t-5.143 13.143v329.143q0 8 5.143 13.143t13.143 5.143h36.571q8 0 13.143-5.143t5.143-13.143v-18.286q40.571 0 74.286-20.286t53.143-54.571l38.857 6.857q16.571 54.286 16.571 110.286 0 84.571-50.286 159.429t-135.143 119.429-180.286 44.571-180.286-44.571-135.143-119.429-50.286-159.429q0-56 16.571-110.286l38.857-6.857q19.429 34.286 53.143 54.571t74.286 20.286v18.286q0 8 5.143 13.143t13.143 5.143h36.571q8 0 13.143-5.143t5.143-13.143v-329.143q0-8-5.143-13.143t-13.143-5.143h-36.571q-8 0-13.143 5.143t-5.143 13.143v18.286q-50.286 0-89.429 30.571t-51.714 78l-105.714 18.857-11.429 28q-34.286 84.571-34.286 179.429 0 86.286 38.286 166.286t102.286 138.571 152 93.429 182.857 34.857 182.857-34.857 152-93.429 102.286-138.571 38.286-166.286z" horiz-adv-x="951" />
<glyph unicode="&#xe623;" d="M438.857 822.857v-621.714q0-14.857-10.857-25.714t-25.714-10.857-25.714 10.857l-190.286 190.286h-149.714q-14.857 0-25.714 10.857t-10.857 25.714v219.429q0 14.857 10.857 25.714t25.714 10.857h149.714l190.286 190.286q10.857 10.857 25.714 10.857t25.714-10.857 10.857-25.714z" horiz-adv-x="439" />
<glyph unicode="&#xe624;" d="M438.857 822.857v-621.714q0-14.857-10.857-25.714t-25.714-10.857-25.714 10.857l-190.286 190.286h-149.714q-14.857 0-25.714 10.857t-10.857 25.714v219.429q0 14.857 10.857 25.714t25.714 10.857h149.714l190.286 190.286q10.857 10.857 25.714 10.857t25.714-10.857 10.857-25.714zM658.286 512q0-43.429-24.286-80.857t-64.286-53.429q-5.714-2.857-14.286-2.857-14.857 0-25.714 10.571t-10.857 26q0 12 6.857 20.286t16.571 14.286 19.429 13.143 16.571 20.286 6.857 32.571-6.857 32.571-16.571 20.286-19.429 13.143-16.571 14.286-6.857 20.286q0 15.429 10.857 26t25.714 10.571q8.571 0 14.286-2.857 40-15.429 64.286-53.143t24.286-81.143z" horiz-adv-x="658" />
<glyph unicode="&#xe625;" d="M438.857 822.857v-621.714q0-14.857-10.857-25.714t-25.714-10.857-25.714 10.857l-190.286 190.286h-149.714q-14.857 0-25.714 10.857t-10.857 25.714v219.429q0 14.857 10.857 25.714t25.714 10.857h149.714l190.286 190.286q10.857 10.857 25.714 10.857t25.714-10.857 10.857-25.714zM658.286 512q0-43.429-24.286-80.857t-64.286-53.429q-5.714-2.857-14.286-2.857-14.857 0-25.714 10.571t-10.857 26q0 12 6.857 20.286t16.571 14.286 19.429 13.143 16.571 20.286 6.857 32.571-6.857 32.571-16.571 20.286-19.429 13.143-16.571 14.286-6.857 20.286q0 15.429 10.857 26t25.714 10.571q8.571 0 14.286-2.857 40-15.429 64.286-53.143t24.286-81.143zM804.571 512q0-87.429-48.571-161.429t-128.571-107.714q-7.429-2.857-14.286-2.857-15.429 0-26.286 10.857t-10.857 25.714q0 22.286 22.286 33.714 32 16.571 43.429 25.143 42.286 30.857 66 77.429t23.714 99.143-23.714 99.143-66 77.429q-11.429 8.571-43.429 25.143-22.286 11.429-22.286 33.714 0 14.857 10.857 25.714t25.714 10.857q7.429 0 14.857-2.857 80-33.714 128.571-107.714t48.571-161.429zM950.857 512q0-131.429-72.571-241.429t-193.143-162q-7.429-2.857-14.857-2.857-14.857 0-25.714 10.857t-10.857 25.714q0 20.571 22.286 33.714 4 2.286 12.857 6t12.857 6q26.286 14.286 46.857 29.143 70.286 52 109.714 129.714t39.429 165.143-39.429 165.143-109.714 129.714q-20.571 14.857-46.857 29.143-4 2.286-12.857 6t-12.857 6q-22.286 13.143-22.286 33.714 0 14.857 10.857 25.714t25.714 10.857q7.429 0 14.857-2.857 120.571-52 193.143-162t72.571-241.429z" horiz-adv-x="951" />
<glyph unicode="&#xe626;" d="M219.429 365.714v-73.143h-73.143v73.143h73.143zM219.429 804.571v-73.143h-73.143v73.143h73.143zM658.286 804.571v-73.143h-73.143v73.143h73.143zM73.143 220h219.429v218.857h-219.429v-218.857zM73.143 658.286h219.429v219.429h-219.429v-219.429zM512 658.286h219.429v219.429h-219.429v-219.429zM365.714 512v-365.714h-365.714v365.714h365.714zM658.286 219.429v-73.143h-73.143v73.143h73.143zM804.571 219.429v-73.143h-73.143v73.143h73.143zM804.571 512v-219.429h-219.429v73.143h-73.143v-219.429h-73.143v365.714h219.429v-73.143h73.143v73.143h73.143zM365.714 950.857v-365.714h-365.714v365.714h365.714zM804.571 950.857v-365.714h-365.714v365.714h365.714z" horiz-adv-x="805" />
<glyph unicode="&#xe627;" d="M36 146.286h-36v804.571h36v-804.571zM72 146.857h-18.286v804h18.286v-804zM125.714 146.857h-17.714v804h17.714v-804zM215.429 146.857h-17.714v804h17.714v-804zM305.143 146.857h-35.429v804h35.429v-804zM377.143 146.857h-17.714v804h17.714v-804zM413.143 146.857h-17.714v804h17.714v-804zM449.143 146.857h-17.714v804h17.714v-804zM538.857 146.857h-36v804h36v-804zM628.571 146.857h-36v804h36v-804zM700.571 146.857h-36v804h36v-804zM772.571 146.857h-36v804h36v-804zM826.286 146.857h-36v804h36v-804zM934.286 146.857h-53.714v804h53.714v-804zM970.286 146.857h-18.286v804h18.286v-804zM1024 146.286h-36v804.571h36v-804.571z" />
<glyph unicode="&#xe628;" d="M256 768q0 30.286-21.429 51.714t-51.714 21.429-51.714-21.429-21.429-51.714 21.429-51.714 51.714-21.429 51.714 21.429 21.429 51.714zM865.714 438.857q0-30.286-21.143-51.429l-280.571-281.143q-22.286-21.143-52-21.143-30.286 0-51.429 21.143l-408.571 409.143q-21.714 21.143-36.857 57.714t-15.143 66.857v237.714q0 29.714 21.714 51.429t51.429 21.714h237.714q30.286 0 66.857-15.143t58.286-36.857l408.571-408q21.143-22.286 21.143-52z" horiz-adv-x="878" />
<glyph unicode="&#xe629;" d="M256 768q0 30.286-21.429 51.714t-51.714 21.429-51.714-21.429-21.429-51.714 21.429-51.714 51.714-21.429 51.714 21.429 21.429 51.714zM865.714 438.857q0-30.286-21.143-51.429l-280.571-281.143q-22.286-21.143-52-21.143-30.286 0-51.429 21.143l-408.571 409.143q-21.714 21.143-36.857 57.714t-15.143 66.857v237.714q0 29.714 21.714 51.429t51.429 21.714h237.714q30.286 0 66.857-15.143t58.286-36.857l408.571-408q21.143-22.286 21.143-52zM1085.143 438.857q0-30.286-21.143-51.429l-280.571-281.143q-22.286-21.143-52-21.143-20.571 0-33.714 8t-30.286 25.714l268.571 268.571q21.143 21.143 21.143 51.429 0 29.714-21.143 52l-408.571 408q-21.714 21.714-58.286 36.857t-66.857 15.143h128q30.286 0 66.857-15.143t58.286-36.857l408.571-408q21.143-22.286 21.143-52z" horiz-adv-x="1097" />
<glyph unicode="&#xe62a;" d="M936.571 750.857q22.857-32.571 10.286-73.714l-157.143-517.714q-10.857-36.571-43.714-61.429t-70-24.857h-527.429q-44 0-84.857 30.571t-56.857 75.143q-13.714 38.286-1.143 72.571 0 2.286 1.714 15.429t2.286 21.143q0.571 4.571-1.714 12.286t-1.714 11.143q1.143 6.286 4.571 12t9.429 13.429 9.429 13.429q13.143 21.714 25.714 52.286t17.143 52.286q1.714 5.714 0.286 17.143t-0.286 16q1.714 6.286 9.714 16t9.714 13.143q12 20.571 24 52.571t14.286 51.429q0.571 5.143-1.429 18.286t0.286 16q2.286 7.429 12.571 17.429t12.571 12.857q10.857 14.857 24.286 48.286t15.714 55.143q0.571 4.571-1.714 14.571t-1.143 15.143q1.143 4.571 5.143 10.286t10.286 13.143 9.714 12q4.571 6.857 9.429 17.429t8.571 20 9.143 20.571 11.143 18.286 15.143 13.429 20.571 6.571 27.143-3.143l-0.571-1.714q21.714 5.143 29.143 5.143h434.857q42.286 0 65.143-32t10.286-74.286l-156.571-517.714q-20.571-68-40.857-87.714t-73.429-19.714h-496.571q-15.429 0-21.714-8.571-6.286-9.143-0.571-24.571 13.714-40 82.286-40h527.429q16.571 0 32 8.857t20 23.714l171.429 564q4 12.571 2.857 32.571 21.714-8.571 33.714-24.571zM328.571 749.714q-2.286-7.429 1.143-12.857t11.429-5.429h347.429q7.429 0 14.571 5.429t9.429 12.857l12 36.571q2.286 7.429-1.143 12.857t-11.429 5.429h-347.429q-7.429 0-14.571-5.429t-9.429-12.857zM281.143 603.429q-2.286-7.429 1.143-12.857t11.429-5.429h347.429q7.429 0 14.571 5.429t9.429 12.857l12 36.571q2.286 7.429-1.143 12.857t-11.429 5.429h-347.429q-7.429 0-14.571-5.429t-9.429-12.857z" horiz-adv-x="951" />
<glyph unicode="&#xe62b;" d="M665.143 950.857q13.143 0 25.143-5.143 18.857-7.429 30-23.429t11.143-35.429v-736.571q0-19.429-11.143-35.429t-30-23.429q-10.857-4.571-25.143-4.571-27.429 0-47.429 18.286l-252 242.286-252-242.286q-20.571-18.857-47.429-18.857-13.143 0-25.143 5.143-18.857 7.429-30 23.429t-11.143 35.429v736.571q0 19.429 11.143 35.429t30 23.429q12 5.143 25.143 5.143h598.857z" horiz-adv-x="731" />
<glyph unicode="&#xe62c;" d="M219.429 146.286h512v146.286h-512v-146.286zM219.429 512h512v219.429h-91.429q-22.857 0-38.857 16t-16 38.857v91.429h-365.714v-365.714zM877.714 475.429q0 14.857-10.857 25.714t-25.714 10.857-25.714-10.857-10.857-25.714 10.857-25.714 25.714-10.857 25.714 10.857 10.857 25.714zM950.857 475.429v-237.714q0-7.429-5.429-12.857t-12.857-5.429h-128v-91.429q0-22.857-16-38.857t-38.857-16h-548.571q-22.857 0-38.857 16t-16 38.857v91.429h-128q-7.429 0-12.857 5.429t-5.429 12.857v237.714q0 45.143 32.286 77.429t77.429 32.286h36.571v310.857q0 22.857 16 38.857t38.857 16h384q22.857 0 50.286-11.429t43.429-27.429l86.857-86.857q16-16 27.429-43.429t11.429-50.286v-146.286h36.571q45.143 0 77.429-32.286t32.286-77.429z" horiz-adv-x="951" />
<glyph unicode="&#xe62d;" d="M548.571 640q68 0 116.286-48.286t48.286-116.286-48.286-116.286-116.286-48.286-116.286 48.286-48.286 116.286 48.286 116.286 116.286 48.286zM950.857 877.714q60.571 0 103.429-42.857t42.857-103.429v-512q0-60.571-42.857-103.429t-103.429-42.857h-804.571q-60.571 0-103.429 42.857t-42.857 103.429v512q0 60.571 42.857 103.429t103.429 42.857h128l29.143 77.714q10.857 28 39.714 48.286t59.143 20.286h292.571q30.286 0 59.143-20.286t39.714-48.286l29.143-77.714h128zM548.571 219.429q105.714 0 180.857 75.143t75.143 180.857-75.143 180.857-180.857 75.143-180.857-75.143-75.143-180.857 75.143-180.857 180.857-75.143z" horiz-adv-x="1097" />
<glyph unicode="&#xe62e;" d="M414.286 704.571l-97.143-257.143q41.714-0.571 87.714-1.143t68-0.857 30-0.286l16.571 1.143q-18.286 54.286-52.571 137.714-30.286 75.429-52.571 120.571zM12 73.143h-12l1.143 45.143q12.571 4 45.714 10.286 50.857 9.143 62.857 17.714 11.429 9.143 27.429 38.857l135.429 352 160 413.714h73.143l6.286-12 117.143-274.286q58.857-138.286 70.857-169.714 22.286-58.286 54.857-134.286 14.857-33.143 37.143-93.714 13.714-38.286 37.143-85.143 12.571-28 20-32.571 12.571-10.857 39.429-13.143 26.857-3.429 58.857-15.429 3.429-22.286 3.429-32.571 0-8-0.571-14.857-45.714 0-109.714 4.571-53.143 4.571-108 4.571-45.143 0-77.143-1.143l-114.286-6.286-33.143-1.143q0 25.714 2.286 44.571l74.857 16q32 7.429 38.857 13.143 6.857 6.857 6.857 15.429t-3.429 18.286l-26.857 65.143-52.571 130.286-257.143 1.143q-16.571-37.143-59.429-156.571-13.143-36.571-13.143-48 0-17.714 9.714-24.571 14.857-12 58.857-18.286 1.714 0 7.714-1.143t17.143-2.857 23.143-3.429q0.571-16 0.571-33.143 0-9.714-1.143-15.429-37.714 0-199.429 11.429l-27.429-4.571q-46.286-8-95.429-8z" horiz-adv-x="951" />
<glyph unicode="&#xe62f;" d="M317.143 154.857q43.429-18.286 80-18.286 74.857 0 123.429 23.429t69.714 64.571q21.714 40 21.714 103.429 0 65.143-23.429 102.857-33.143 53.714-80.571 72-45.714 18.286-141.143 18.286-42.286 0-57.714-5.714v-82.286l-0.571-98.857 1.714-154.286q0-8.571 6.857-25.143zM309.143 581.143q24.571-4 62.286-4 100 0 150.857 37.143t50.857 128q0 64-48.571 106.857-48 42.857-145.714 42.857-29.714 0-74.286-7.429 0-25.143 1.143-44 4-69.714 3.429-159.429l-0.571-56q0-24.571 0.571-44zM0 73.143l1.143 53.714q25.714 5.143 38.857 6.857 44 6.857 70.286 17.714 9.714 15.429 12 29.143 5.143 37.714 5.143 110.857l-1.143 284q-2.857 146.286-5.143 230.857-0.571 49.714-6.286 62.286-0.571 2.286-6.857 6.857-10.286 6.857-39.429 8.571-17.143 1.143-65.143 7.429l-2.286 47.429 148.571 3.429 217.143 7.429 25.714 0.571q2.857 0 8 0.286t8 0.286q0.571 0 12.286-0.286t23.143-0.286h42.286q50.286 0 109.143-15.429 24.571-7.429 54.857-22.286 32.571-16.571 58.286-43.429 25.143-26.857 37.143-59.429t12-69.714q0-40-18.286-73.143t-54.286-60q-14.857-11.429-85.714-44 101.143-23.429 152.571-83.429 52.571-60.571 52.571-134.857 0-43.429-16.571-92-12-35.429-40.571-66.857-37.714-41.143-80-61.714-41.714-20.571-116-34.286-46.857-8.571-113.143-6.286l-112.571 2.286q-48 1.143-170.286-6.286-18.857-1.714-155.429-6.286z" horiz-adv-x="805" />
<glyph unicode="&#xe630;" d="M0 74.286l9.714 48.571q2.286 0.571 44 11.429 43.429 10.857 66.286 22.286 16.571 21.143 23.429 57.714l15.429 79.429 32 153.143 6.857 36.571q4.571 25.143 9.714 48.286t9.143 38.286 7.143 26.571 5.143 17.429 2 6.571l16.571 89.714 9.143 36 12.571 77.143 4.571 28.571v21.714q-23.429 12.571-82.286 16-16 1.143-21.714 2.286l10.857 58.857 181.143-8q22.286-1.143 41.714-1.143 37.714 0 122.286 5.143 18.857 1.143 38.857 2.571t20.571 1.429q-1.143-10.857-3.429-21.714-4-16.571-7.429-29.143-31.429-10.857-62.286-17.714-36.571-9.143-57.714-17.714-6.857-17.714-13.714-50.286-5.143-25.143-7.429-46.857-25.143-113.714-37.714-174.857l-34.857-177.714-21.714-90.286-24.571-134.286-6.857-25.714q-1.143-4 0.571-15.429 36.571-8.571 68-12 20.571-2.857 37.714-5.714-0.571-16.571-4-33.143-4-17.714-5.143-23.429-10.286 0-13.143-0.571-13.714-1.143-24-1.143-5.143 0-16 1.714-10.857 2.286-82.857 9.714l-113.143 1.143q-23.429 0.571-99.429-6.286-42.286-4-56-5.143z" horiz-adv-x="585" />
<glyph unicode="&#xe631;" d="M46.286 950.286l30.857-15.429q11.429-2.857 120.571-2.857h74.286l10.857 1.714 65.714 0.571 122.857-0.571h167.429l19.429-1.143q8-0.571 16 4t12 9.143l4 4.571 24 0.571q8.571 0 16-0.571v-59.714t0.571-75.143l0.571-57.143-0.571-33.143q0-18.286-2.286-29.143-22.286-8.571-38.857-10.286-14.286 24.571-30.857 73.143-4.571 13.714-8.857 35.714t-6.571 37.429-3.429 16.571q-7.429 8.571-15.429 10.857-4 1.143-24.286 1.143t-59.143-0.571-63.429-0.571q-19.429 0-38.286-2.857-5.714-55.429-4.571-77.714l0.571-86.857v-189.714l1.714-205.143-0.571-84q-0.571-26.286 6.286-48.571 28-14.286 50.857-18.286 1.143 0 10.286-2.857t25.143-7.429 24.571-6.857q17.143-4.571 28.571-10.286 2.857-25.714 2.857-28.571 0-5.714-1.714-16.571-8-0.571-19.429-0.571-62.857 0-106.857 5.714-41.143 4.571-136 4.571-50.286 0-133.143-8-27.429-2.286-40-2.286-1.143 12.571-1.143 14.857l-0.571 14.857v5.143q12 18.857 45.143 28 79.429 21.714 90.857 28.571 5.143 12 6.857 32 4.571 109.714 3.429 247.429l-2.857 244.571q-0.571 35.429-0.286 67.714t0.286 58.571-1.143 32.571-3.429 8.571q-3.429 2.857-8 3.429-21.714 3.429-84.571 3.429-24.571 0-57.143-7.714t-41.714-14q-7.429-5.143-12.571-18.857t-12.571-42.857-13.714-48q-3.429-10.857-11.143-18.286t-11.714-7.429q-25.143 15.429-32 25.143v218.857zM996.571 219.429q18.857 0 24-10.571t-6.286-25.429l-72-92.571q-11.429-14.857-28-14.857t-28 14.857l-72 92.571q-11.429 14.857-6.286 25.429t24 10.571h45.714v585.143h-45.714q-18.857 0-24 10.571t6.286 25.429l72 92.571q11.429 14.857 28 14.857t28-14.857l72-92.571q11.429-14.857 6.286-25.429t-24-10.571h-45.714v-585.143h45.714z" />
<glyph unicode="&#xe632;" d="M46.286 950.286l30.857-15.429q11.429-2.857 120.571-2.857h74.286l10.857 1.714 65.714 0.571 436.571-0.571 19.429-1.143q8-0.571 16 4t12 9.143l4 4.571 24 0.571q8.571 0 16-0.571v-59.714t0.571-75.143l0.571-57.143-0.571-33.143q0-18.286-2.286-29.143-22.286-8.571-38.857-10.286-14.286 24.571-30.857 73.143-4.571 13.714-8.857 35.714t-6.571 37.429-3.429 16.571q-7.429 8.571-15.429 10.857-4 1.143-33.429 1.143t-79.143-0.571-73.143-0.571q-53.714 0-72.571-2.857-5.714-55.429-4.571-77.714l0.571-86.857v29.714l1.714-205.143-0.571-84q-0.571-26.286 6.286-48.571 28-14.286 50.857-18.286 1.143 0 10.286-2.857t25.143-7.429 24.571-6.857q17.143-4.571 28.571-10.286 2.857-25.714 2.857-28.571 0-5.714-1.714-16.571-8-0.571-19.429-0.571-62.857 0-106.857 5.714-41.143 4.571-136 4.571-46.857 0-133.143-7.429-25.714-2.857-40-2.857-1.143 12.571-1.143 14.857l-0.571 14.857v5.143q12 18.857 45.143 28 79.429 21.714 90.857 28.571 5.143 12 6.857 32 3.429 78.286 3.429 247.429l-2.857 25.143q0 151.429-1.143 158.857-1.143 6.286-3.429 8.571-3.429 2.857-8 3.429-21.714 3.429-84.571 3.429-28.571 0-96.286-8t-75.714-13.714q-7.429-5.143-12.571-18.857t-12.571-42.857-13.714-48q-3.429-10.857-11.143-18.286t-11.714-7.429q-25.143 15.429-32 25.143v218.857zM860 210.857q14.857-11.429 14.857-28t-14.857-28l-92.571-72q-14.857-11.429-25.429-6.286t-10.571 24v45.714h-585.143v-45.714q0-18.857-10.571-24t-25.429 6.286l-92.571 72q-14.857 11.429-14.857 28t14.857 28l92.571 72q14.857 11.429 25.429 6.286t10.571-24v-45.714h585.143v45.714q0 18.857 10.571 24t25.429-6.286z" horiz-adv-x="878" />
<glyph unicode="&#xe633;" d="M1024 256v-73.143q0-14.857-10.857-25.714t-25.714-10.857h-950.857q-14.857 0-25.714 10.857t-10.857 25.714v73.143q0 14.857 10.857 25.714t25.714 10.857h950.857q14.857 0 25.714-10.857t10.857-25.714zM804.571 475.429v-73.143q0-14.857-10.857-25.714t-25.714-10.857h-731.429q-14.857 0-25.714 10.857t-10.857 25.714v73.143q0 14.857 10.857 25.714t25.714 10.857h731.429q14.857 0 25.714-10.857t10.857-25.714zM950.857 694.857v-73.143q0-14.857-10.857-25.714t-25.714-10.857h-877.714q-14.857 0-25.714 10.857t-10.857 25.714v73.143q0 14.857 10.857 25.714t25.714 10.857h877.714q14.857 0 25.714-10.857t10.857-25.714zM731.429 914.286v-73.143q0-14.857-10.857-25.714t-25.714-10.857h-658.286q-14.857 0-25.714 10.857t-10.857 25.714v73.143q0 14.857 10.857 25.714t25.714 10.857h658.286q14.857 0 25.714-10.857t10.857-25.714z" />
<glyph unicode="&#xe634;" d="M1024 256v-73.143q0-14.857-10.857-25.714t-25.714-10.857h-950.857q-14.857 0-25.714 10.857t-10.857 25.714v73.143q0 14.857 10.857 25.714t25.714 10.857h950.857q14.857 0 25.714-10.857t10.857-25.714zM804.571 475.429v-73.143q0-14.857-10.857-25.714t-25.714-10.857h-512q-14.857 0-25.714 10.857t-10.857 25.714v73.143q0 14.857 10.857 25.714t25.714 10.857h512q14.857 0 25.714-10.857t10.857-25.714zM950.857 694.857v-73.143q0-14.857-10.857-25.714t-25.714-10.857h-804.571q-14.857 0-25.714 10.857t-10.857 25.714v73.143q0 14.857 10.857 25.714t25.714 10.857h804.571q14.857 0 25.714-10.857t10.857-25.714zM731.429 914.286v-73.143q0-14.857-10.857-25.714t-25.714-10.857h-365.714q-14.857 0-25.714 10.857t-10.857 25.714v73.143q0 14.857 10.857 25.714t25.714 10.857h365.714q14.857 0 25.714-10.857t10.857-25.714z" />
<glyph unicode="&#xe635;" d="M1024 256v-73.143q0-14.857-10.857-25.714t-25.714-10.857h-950.857q-14.857 0-25.714 10.857t-10.857 25.714v73.143q0 14.857 10.857 25.714t25.714 10.857h950.857q14.857 0 25.714-10.857t10.857-25.714zM1024 475.429v-73.143q0-14.857-10.857-25.714t-25.714-10.857h-731.429q-14.857 0-25.714 10.857t-10.857 25.714v73.143q0 14.857 10.857 25.714t25.714 10.857h731.429q14.857 0 25.714-10.857t10.857-25.714zM1024 694.857v-73.143q0-14.857-10.857-25.714t-25.714-10.857h-877.714q-14.857 0-25.714 10.857t-10.857 25.714v73.143q0 14.857 10.857 25.714t25.714 10.857h877.714q14.857 0 25.714-10.857t10.857-25.714zM1024 914.286v-73.143q0-14.857-10.857-25.714t-25.714-10.857h-658.286q-14.857 0-25.714 10.857t-10.857 25.714v73.143q0 14.857 10.857 25.714t25.714 10.857h658.286q14.857 0 25.714-10.857t10.857-25.714z" />
<glyph unicode="&#xe636;" d="M1024 256v-73.143q0-14.857-10.857-25.714t-25.714-10.857h-950.857q-14.857 0-25.714 10.857t-10.857 25.714v73.143q0 14.857 10.857 25.714t25.714 10.857h950.857q14.857 0 25.714-10.857t10.857-25.714zM1024 475.429v-73.143q0-14.857-10.857-25.714t-25.714-10.857h-950.857q-14.857 0-25.714 10.857t-10.857 25.714v73.143q0 14.857 10.857 25.714t25.714 10.857h950.857q14.857 0 25.714-10.857t10.857-25.714zM1024 694.857v-73.143q0-14.857-10.857-25.714t-25.714-10.857h-950.857q-14.857 0-25.714 10.857t-10.857 25.714v73.143q0 14.857 10.857 25.714t25.714 10.857h950.857q14.857 0 25.714-10.857t10.857-25.714zM1024 914.286v-73.143q0-14.857-10.857-25.714t-25.714-10.857h-950.857q-14.857 0-25.714 10.857t-10.857 25.714v73.143q0 14.857 10.857 25.714t25.714 10.857h950.857q14.857 0 25.714-10.857t10.857-25.714z" />
<glyph unicode="&#xe637;" d="M146.286 274.286v-109.714q0-7.429-5.429-12.857t-12.857-5.429h-109.714q-7.429 0-12.857 5.429t-5.429 12.857v109.714q0 7.429 5.429 12.857t12.857 5.429h109.714q7.429 0 12.857-5.429t5.429-12.857zM146.286 493.714v-109.714q0-7.429-5.429-12.857t-12.857-5.429h-109.714q-7.429 0-12.857 5.429t-5.429 12.857v109.714q0 7.429 5.429 12.857t12.857 5.429h109.714q7.429 0 12.857-5.429t5.429-12.857zM146.286 713.143v-109.714q0-7.429-5.429-12.857t-12.857-5.429h-109.714q-7.429 0-12.857 5.429t-5.429 12.857v109.714q0 7.429 5.429 12.857t12.857 5.429h109.714q7.429 0 12.857-5.429t5.429-12.857zM1024 274.286v-109.714q0-7.429-5.429-12.857t-12.857-5.429h-768q-7.429 0-12.857 5.429t-5.429 12.857v109.714q0 7.429 5.429 12.857t12.857 5.429h768q7.429 0 12.857-5.429t5.429-12.857zM146.286 932.571v-109.714q0-7.429-5.429-12.857t-12.857-5.429h-109.714q-7.429 0-12.857 5.429t-5.429 12.857v109.714q0 7.429 5.429 12.857t12.857 5.429h109.714q7.429 0 12.857-5.429t5.429-12.857zM1024 493.714v-109.714q0-7.429-5.429-12.857t-12.857-5.429h-768q-7.429 0-12.857 5.429t-5.429 12.857v109.714q0 7.429 5.429 12.857t12.857 5.429h768q7.429 0 12.857-5.429t5.429-12.857zM1024 713.143v-109.714q0-7.429-5.429-12.857t-12.857-5.429h-768q-7.429 0-12.857 5.429t-5.429 12.857v109.714q0 7.429 5.429 12.857t12.857 5.429h768q7.429 0 12.857-5.429t5.429-12.857zM1024 932.571v-109.714q0-7.429-5.429-12.857t-12.857-5.429h-768q-7.429 0-12.857 5.429t-5.429 12.857v109.714q0 7.429 5.429 12.857t12.857 5.429h768q7.429 0 12.857-5.429t5.429-12.857z" />
<glyph unicode="&#xe638;" d="M219.429 713.143v-329.143q0-7.429-5.429-12.857t-12.857-5.429q-8 0-13.143 5.143l-164.571 164.571q-5.143 5.143-5.143 13.143t5.143 13.143l164.571 164.571q5.143 5.143 13.143 5.143 7.429 0 12.857-5.429t5.429-12.857zM1024 274.286v-109.714q0-7.429-5.429-12.857t-12.857-5.429h-987.429q-7.429 0-12.857 5.429t-5.429 12.857v109.714q0 7.429 5.429 12.857t12.857 5.429h987.429q7.429 0 12.857-5.429t5.429-12.857zM1024 493.714v-109.714q0-7.429-5.429-12.857t-12.857-5.429h-621.714q-7.429 0-12.857 5.429t-5.429 12.857v109.714q0 7.429 5.429 12.857t12.857 5.429h621.714q7.429 0 12.857-5.429t5.429-12.857zM1024 713.143v-109.714q0-7.429-5.429-12.857t-12.857-5.429h-621.714q-7.429 0-12.857 5.429t-5.429 12.857v109.714q0 7.429 5.429 12.857t12.857 5.429h621.714q7.429 0 12.857-5.429t5.429-12.857zM1024 932.571v-109.714q0-7.429-5.429-12.857t-12.857-5.429h-987.429q-7.429 0-12.857 5.429t-5.429 12.857v109.714q0 7.429 5.429 12.857t12.857 5.429h987.429q7.429 0 12.857-5.429t5.429-12.857z" />
<glyph unicode="&#xe639;" d="M201.143 548.571q0-8-5.143-13.143l-164.571-164.571q-5.143-5.143-13.143-5.143-7.429 0-12.857 5.429t-5.429 12.857v329.143q0 7.429 5.429 12.857t12.857 5.429q8 0 13.143-5.143l164.571-164.571q5.143-5.143 5.143-13.143zM1024 274.286v-109.714q0-7.429-5.429-12.857t-12.857-5.429h-987.429q-7.429 0-12.857 5.429t-5.429 12.857v109.714q0 7.429 5.429 12.857t12.857 5.429h987.429q7.429 0 12.857-5.429t5.429-12.857zM1024 493.714v-109.714q0-7.429-5.429-12.857t-12.857-5.429h-621.714q-7.429 0-12.857 5.429t-5.429 12.857v109.714q0 7.429 5.429 12.857t12.857 5.429h621.714q7.429 0 12.857-5.429t5.429-12.857zM1024 713.143v-109.714q0-7.429-5.429-12.857t-12.857-5.429h-621.714q-7.429 0-12.857 5.429t-5.429 12.857v109.714q0 7.429 5.429 12.857t12.857 5.429h621.714q7.429 0 12.857-5.429t5.429-12.857zM1024 932.571v-109.714q0-7.429-5.429-12.857t-12.857-5.429h-987.429q-7.429 0-12.857 5.429t-5.429 12.857v109.714q0 7.429 5.429 12.857t12.857 5.429h987.429q7.429 0 12.857-5.429t5.429-12.857z" />
<glyph unicode="&#xe63a;" d="M1024 822.857v-621.714q0-24-22.286-33.714-7.429-2.857-14.286-2.857-15.429 0-25.714 10.857l-230.286 230.286v-94.857q0-68-48.286-116.286t-116.286-48.286h-402.286q-68 0-116.286 48.286t-48.286 116.286v402.286q0 68 48.286 116.286t116.286 48.286h402.286q68 0 116.286-48.286t48.286-116.286v-94.286l230.286 229.714q10.286 10.857 25.714 10.857 6.857 0 14.286-2.857 22.286-9.714 22.286-33.714z" />
<glyph unicode="&#xe63b;" d="M365.714 694.857q0-45.714-32-77.714t-77.714-32-77.714 32-32 77.714 32 77.714 77.714 32 77.714-32 32-77.714zM950.857 475.429v-256h-804.571v109.714l182.857 182.857 91.429-91.429 292.571 292.571zM1005.714 877.714h-914.286q-7.429 0-12.857-5.429t-5.429-12.857v-694.857q0-7.429 5.429-12.857t12.857-5.429h914.286q7.429 0 12.857 5.429t5.429 12.857v694.857q0 7.429-5.429 12.857t-12.857 5.429zM1097.143 859.429v-694.857q0-37.714-26.857-64.571t-64.571-26.857h-914.286q-37.714 0-64.571 26.857t-26.857 64.571v694.857q0 37.714 26.857 64.571t64.571 26.857h914.286q37.714 0 64.571-26.857t26.857-64.571z" horiz-adv-x="1097" />
<glyph unicode="&#xe63c;" d="M207.429 146.286l52 52-134.286 134.286-52-52v-61.143h73.143v-73.143h61.143zM506.286 676.571q0 12.571-12.571 12.571-5.714 0-9.714-4l-309.714-309.714q-4-4-4-9.714 0-12.571 12.571-12.571 5.714 0 9.714 4l309.714 309.714q4 4 4 9.714zM475.429 786.286l237.714-237.714-475.429-475.429h-237.714v237.714zM865.714 731.429q0-30.286-21.143-51.429l-94.857-94.857-237.714 237.714 94.857 94.286q20.571 21.714 51.429 21.714 30.286 0 52-21.714l134.286-133.714q21.143-22.286 21.143-52z" horiz-adv-x="878" />
<glyph unicode="&#xe63d;" d="M438.857 658.286q0 60.571-42.857 103.429t-103.429 42.857-103.429-42.857-42.857-103.429 42.857-103.429 103.429-42.857 103.429 42.857 42.857 103.429zM585.143 658.286q0-62.286-18.857-102.286l-208-442.286q-9.143-18.857-27.143-29.714t-38.571-10.857-38.571 10.857-26.571 29.714l-208.571 442.286q-18.857 40-18.857 102.286 0 121.143 85.714 206.857t206.857 85.714 206.857-85.714 85.714-206.857z" horiz-adv-x="585" />
<glyph unicode="&#xe63e;" d="M438.857 201.143v621.714q-84.571 0-156-41.714t-113.143-113.143-41.714-156 41.714-156 113.143-113.143 156-41.714zM877.714 512q0-119.429-58.857-220.286t-159.714-159.714-220.286-58.857-220.286 58.857-159.714 159.714-58.857 220.286 58.857 220.286 159.714 159.714 220.286 58.857 220.286-58.857 159.714-159.714 58.857-220.286z" horiz-adv-x="878" />
<glyph unicode="&#xe63f;" d="M292.571 365.714q0 20.571-11.429 39.429-0.571 0.571-8.857 12.857t-14.571 21.714-14.286 25.143-12 28.857q-2.286 9.143-12 9.143t-12-9.143q-4-13.143-12-28.857t-14.286-25.143-14.571-21.714-8.857-12.857q-11.429-18.857-11.429-39.429 0-30.286 21.429-51.714t51.714-21.429 51.714 21.429 21.429 51.714zM585.143 438.857q0-121.143-85.714-206.857t-206.857-85.714-206.857 85.714-85.714 206.857q0 82.857 46.286 157.143 3.429 5.143 35.714 51.714t57.714 86.286 56.857 101.714 47.429 115.143q5.143 17.143 19.429 26.857t29.143 9.714 29.429-9.714 19.143-26.857q16-53.143 47.429-115.143t56.857-101.714 57.714-86.286 35.714-51.714q46.286-72.571 46.286-157.143z" horiz-adv-x="585" />
<glyph unicode="&#xe640;" d="M507.429 347.429l66.286 66.286-86.857 86.857-66.286-66.286v-32h54.857v-54.857h32zM758.857 758.857q-9.143 9.143-18.857-0.571l-200-200q-9.714-9.714-0.571-18.857t18.857 0.571l200 200q9.714 9.714 0.571 18.857zM804.571 419.429v-108.571q0-68-48.286-116.286t-116.286-48.286h-475.429q-68 0-116.286 48.286t-48.286 116.286v475.429q0 68 48.286 116.286t116.286 48.286h475.429q36 0 66.857-14.286 8.571-4 10.286-13.143 1.714-9.714-5.143-16.571l-28-28q-8-8-18.286-4.571-13.143 3.429-25.714 3.429h-475.429q-37.714 0-64.571-26.857t-26.857-64.571v-475.429q0-37.714 26.857-64.571t64.571-26.857h475.429q37.714 0 64.571 26.857t26.857 64.571v72q0 7.429 5.143 12.571l36.571 36.571q8.571 8.571 20 4t11.429-16.571zM749.714 841.143l164.571-164.571-384-384h-164.571v164.571zM1003.429 765.714l-52.571-52.571-164.571 164.571 52.571 52.571q16 16 38.857 16t38.857-16l86.857-86.857q16-16 16-38.857t-16-38.857z" />
<glyph unicode="&#xe641;" d="M804.571 458.857v-148q0-68-48.286-116.286t-116.286-48.286h-475.429q-68 0-116.286 48.286t-48.286 116.286v475.429q0 68 48.286 116.286t116.286 48.286h145.714q7.429 0 12.857-5.429t5.429-12.857q0-15.429-14.857-18.286-44-14.857-76-34.286-5.714-2.286-9.143-2.286h-64q-37.714 0-64.571-26.857t-26.857-64.571v-475.429q0-37.714 26.857-64.571t64.571-26.857h475.429q37.714 0 64.571 26.857t26.857 64.571v122.286q0 10.857 10.286 16.571 16 7.429 30.857 21.143 9.143 9.143 20 4.571 12-5.143 12-16.571zM940 742.286l-219.429-219.429q-10.286-10.857-25.714-10.857-6.857 0-14.286 2.857-22.286 9.714-22.286 33.714v109.714h-91.429q-184.571 0-250.286-74.857-68-78.286-42.286-270.286 1.714-13.143-11.429-19.429-4.571-1.143-6.857-1.143-9.143 0-14.857 7.429-5.714 8-12 17.714t-22.571 39.143-28.286 56.857-22 65.143-10 69.714q0 28 2 52t8 51.429 16 50.286 26.857 46.571 39.143 42.286 54 35.143 71.143 27.714 91.143 17.429 112.286 6.286h91.429v109.714q0 24 22.286 33.714 7.429 2.857 14.286 2.857 14.857 0 25.714-10.857l219.429-219.429q10.857-10.857 10.857-25.714t-10.857-25.714z" horiz-adv-x="951" />
<glyph unicode="&#xe642;" d="M804.571 492.571v-181.714q0-68-48.286-116.286t-116.286-48.286h-475.429q-68 0-116.286 48.286t-48.286 116.286v475.429q0 68 48.286 116.286t116.286 48.286h475.429q36 0 66.857-14.286 8.571-4 10.286-13.143 1.714-9.714-5.143-16.571l-28-28q-5.714-5.714-13.143-5.714-1.714 0-5.143 1.143-13.143 3.429-25.714 3.429h-475.429q-37.714 0-64.571-26.857t-26.857-64.571v-475.429q0-37.714 26.857-64.571t64.571-26.857h475.429q37.714 0 64.571 26.857t26.857 64.571v145.143q0 7.429 5.143 12.571l36.571 36.571q5.714 5.714 13.143 5.714 3.429 0 6.857-1.714 11.429-4.571 11.429-16.571zM936.571 772l-465.143-465.143q-13.714-13.714-32.571-13.714t-32.571 13.714l-245.714 245.714q-13.714 13.714-13.714 32.571t13.714 32.571l62.857 62.857q13.714 13.714 32.571 13.714t32.571-13.714l150.286-150.286 369.714 369.714q13.714 13.714 32.571 13.714t32.571-13.714l62.857-62.857q13.714-13.714 13.714-32.571t-13.714-32.571z" horiz-adv-x="951" />
<glyph unicode="&#xe643;" d="M1024 512q0-14.857-10.857-25.714l-146.286-146.286q-10.857-10.857-25.714-10.857t-25.714 10.857-10.857 25.714v73.143h-219.429v-219.429h73.143q14.857 0 25.714-10.857t10.857-25.714-10.857-25.714l-146.286-146.286q-10.857-10.857-25.714-10.857t-25.714 10.857l-146.286 146.286q-10.857 10.857-10.857 25.714t10.857 25.714 25.714 10.857h73.143v219.429h-219.429v-73.143q0-14.857-10.857-25.714t-25.714-10.857-25.714 10.857l-146.286 146.286q-10.857 10.857-10.857 25.714t10.857 25.714l146.286 146.286q10.857 10.857 25.714 10.857t25.714-10.857 10.857-25.714v-73.143h219.429v219.429h-73.143q-14.857 0-25.714 10.857t-10.857 25.714 10.857 25.714l146.286 146.286q10.857 10.857 25.714 10.857t25.714-10.857l146.286-146.286q10.857-10.857 10.857-25.714t-10.857-25.714-25.714-10.857h-73.143v-219.429h219.429v73.143q0 14.857 10.857 25.714t25.714 10.857 25.714-10.857l146.286-146.286q10.857-10.857 10.857-25.714z" />
<glyph unicode="&#xe644;" d="M559.429 943.429q10.857 10.857 18.286 7.429t7.429-18.286v-841.143q0-14.857-7.429-18.286t-18.286 7.429l-405.714 405.714q-5.143 5.143-7.429 10.857v-387.429q0-14.857-10.857-25.714t-25.714-10.857h-73.143q-14.857 0-25.714 10.857t-10.857 25.714v804.571q0 14.857 10.857 25.714t25.714 10.857h73.143q14.857 0 25.714-10.857t10.857-25.714v-387.429q2.286 6.286 7.429 10.857z" horiz-adv-x="585" />
<glyph unicode="&#xe645;" d="M998.286 943.429q10.857 10.857 18.286 7.429t7.429-18.286v-841.143q0-14.857-7.429-18.286t-18.286 7.429l-405.714 405.714q-5.143 5.143-7.429 10.857v-405.714q0-14.857-7.429-18.286t-18.286 7.429l-405.714 405.714q-5.143 5.143-7.429 10.857v-387.429q0-14.857-10.857-25.714t-25.714-10.857h-73.143q-14.857 0-25.714 10.857t-10.857 25.714v804.571q0 14.857 10.857 25.714t25.714 10.857h73.143q14.857 0 25.714-10.857t10.857-25.714v-387.429q2.286 6.286 7.429 10.857l405.714 405.714q10.857 10.857 18.286 7.429t7.429-18.286v-405.714q2.286 6.286 7.429 10.857z" />
<glyph unicode="&#xe646;" d="M925.143 943.429q10.857 10.857 18.286 7.429t7.429-18.286v-841.143q0-14.857-7.429-18.286t-18.286 7.429l-405.714 405.714q-4.571 5.143-7.429 10.857v-405.714q0-14.857-7.429-18.286t-18.286 7.429l-405.714 405.714q-10.857 10.857-10.857 25.714t10.857 25.714l405.714 405.714q10.857 10.857 18.286 7.429t7.429-18.286v-405.714q2.857 6.286 7.429 10.857z" horiz-adv-x="951" />
<glyph unicode="&#xe647;" d="M790.857 494.286l-758.857-421.714q-13.143-7.429-22.571-1.714t-9.429 20.571v841.143q0 14.857 9.429 20.571t22.571-1.714l758.857-421.714q13.143-7.429 13.143-17.714t-13.143-17.714z" horiz-adv-x="805" />
<glyph unicode="&#xe648;" d="M877.714 914.286v-804.571q0-14.857-10.857-25.714t-25.714-10.857h-292.571q-14.857 0-25.714 10.857t-10.857 25.714v804.571q0 14.857 10.857 25.714t25.714 10.857h292.571q14.857 0 25.714-10.857t10.857-25.714zM365.714 914.286v-804.571q0-14.857-10.857-25.714t-25.714-10.857h-292.571q-14.857 0-25.714 10.857t-10.857 25.714v804.571q0 14.857 10.857 25.714t25.714 10.857h292.571q14.857 0 25.714-10.857t10.857-25.714z" horiz-adv-x="878" />
<glyph unicode="&#xe649;" d="M877.714 914.286v-804.571q0-14.857-10.857-25.714t-25.714-10.857h-804.571q-14.857 0-25.714 10.857t-10.857 25.714v804.571q0 14.857 10.857 25.714t25.714 10.857h804.571q14.857 0 25.714-10.857t10.857-25.714z" horiz-adv-x="878" />
<glyph unicode="&#xe64a;" d="M25.714 80.571q-10.857-10.857-18.286-7.429t-7.429 18.286v841.143q0 14.857 7.429 18.286t18.286-7.429l405.714-405.714q4.571-4.571 7.429-10.857v405.714q0 14.857 7.429 18.286t18.286-7.429l405.714-405.714q10.857-10.857 10.857-25.714t-10.857-25.714l-405.714-405.714q-10.857-10.857-18.286-7.429t-7.429 18.286v405.714q-2.857-5.714-7.429-10.857z" horiz-adv-x="951" />
<glyph unicode="&#xe64b;" d="M25.714 80.571q-10.857-10.857-18.286-7.429t-7.429 18.286v841.143q0 14.857 7.429 18.286t18.286-7.429l405.714-405.714q4.571-4.571 7.429-10.857v405.714q0 14.857 7.429 18.286t18.286-7.429l405.714-405.714q4.571-4.571 7.429-10.857v387.429q0 14.857 10.857 25.714t25.714 10.857h73.143q14.857 0 25.714-10.857t10.857-25.714v-804.571q0-14.857-10.857-25.714t-25.714-10.857h-73.143q-14.857 0-25.714 10.857t-10.857 25.714v387.429q-2.857-5.714-7.429-10.857l-405.714-405.714q-10.857-10.857-18.286-7.429t-7.429 18.286v405.714q-2.857-5.714-7.429-10.857z" />
<glyph unicode="&#xe64c;" d="M25.714 80.571q-10.857-10.857-18.286-7.429t-7.429 18.286v841.143q0 14.857 7.429 18.286t18.286-7.429l405.714-405.714q4.571-4.571 7.429-10.857v387.429q0 14.857 10.857 25.714t25.714 10.857h73.143q14.857 0 25.714-10.857t10.857-25.714v-804.571q0-14.857-10.857-25.714t-25.714-10.857h-73.143q-14.857 0-25.714 10.857t-10.857 25.714v387.429q-2.857-5.714-7.429-10.857z" horiz-adv-x="585" />
<glyph unicode="&#xe64d;" d="M8 464.571l405.714 405.714q10.857 10.857 25.714 10.857t25.714-10.857l405.714-405.714q10.857-10.857 7.429-18.286t-18.286-7.429h-841.143q-14.857 0-18.286 7.429t7.429 18.286zM841.714 146.286h-804.571q-14.857 0-25.714 10.857t-10.857 25.714v146.286q0 14.857 10.857 25.714t25.714 10.857h804.571q14.857 0 25.714-10.857t10.857-25.714v-146.286q0-14.857-10.857-25.714t-25.714-10.857z" horiz-adv-x="879" />
<glyph unicode="&#xe64e;" d="M424 125.143l-372.571 372q-21.143 21.143-21.143 51.714t21.143 51.714l372.571 372q21.143 21.143 51.714 21.143t51.714-21.143l42.857-42.857q21.143-21.143 21.143-51.714t-21.143-51.714l-277.714-277.714 277.714-277.143q21.143-21.714 21.143-52t-21.143-51.429l-42.857-42.857q-21.143-21.143-51.714-21.143t-51.714 21.143z" horiz-adv-x="658" />
<glyph unicode="&#xe64f;" d="M628 548.571q0-29.714-21.143-52l-372.571-372q-21.143-21.143-51.429-21.143t-51.429 21.143l-43.429 42.857q-21.143 22.286-21.143 52 0 30.286 21.143 51.429l277.714 277.714-277.714 277.143q-21.143 22.286-21.143 52 0 30.286 21.143 51.429l43.429 42.857q20.571 21.714 51.429 21.714t51.429-21.714l372.571-372q21.143-21.143 21.143-51.429z" horiz-adv-x="658" />
<glyph unicode="&#xe650;" d="M694.857 475.429v73.143q0 14.857-10.857 25.714t-25.714 10.857h-146.286v146.286q0 14.857-10.857 25.714t-25.714 10.857h-73.143q-14.857 0-25.714-10.857t-10.857-25.714v-146.286h-146.286q-14.857 0-25.714-10.857t-10.857-25.714v-73.143q0-14.857 10.857-25.714t25.714-10.857h146.286v-146.286q0-14.857 10.857-25.714t25.714-10.857h73.143q14.857 0 25.714 10.857t10.857 25.714v146.286h146.286q14.857 0 25.714 10.857t10.857 25.714zM877.714 512q0-119.429-58.857-220.286t-159.714-159.714-220.286-58.857-220.286 58.857-159.714 159.714-58.857 220.286 58.857 220.286 159.714 159.714 220.286 58.857 220.286-58.857 159.714-159.714 58.857-220.286z" horiz-adv-x="878" />
<glyph unicode="&#xe651;" d="M694.857 475.429v73.143q0 14.857-10.857 25.714t-25.714 10.857h-438.857q-14.857 0-25.714-10.857t-10.857-25.714v-73.143q0-14.857 10.857-25.714t25.714-10.857h438.857q14.857 0 25.714 10.857t10.857 25.714zM877.714 512q0-119.429-58.857-220.286t-159.714-159.714-220.286-58.857-220.286 58.857-159.714 159.714-58.857 220.286 58.857 220.286 159.714 159.714 220.286 58.857 220.286-58.857 159.714-159.714 58.857-220.286z" horiz-adv-x="878" />
<glyph unicode="&#xe652;" d="M656.571 382.857q0 14.857-10.857 25.714l-103.429 103.429 103.429 103.429q10.857 10.857 10.857 25.714 0 15.429-10.857 26.286l-51.429 51.429q-10.857 10.857-26.286 10.857-14.857 0-25.714-10.857l-103.429-103.429-103.429 103.429q-10.857 10.857-25.714 10.857-15.429 0-26.286-10.857l-51.429-51.429q-10.857-10.857-10.857-26.286 0-14.857 10.857-25.714l103.429-103.429-103.429-103.429q-10.857-10.857-10.857-25.714 0-15.429 10.857-26.286l51.429-51.429q10.857-10.857 26.286-10.857 14.857 0 25.714 10.857l103.429 103.429 103.429-103.429q10.857-10.857 25.714-10.857 15.429 0 26.286 10.857l51.429 51.429q10.857 10.857 10.857 26.286zM877.714 512q0-119.429-58.857-220.286t-159.714-159.714-220.286-58.857-220.286 58.857-159.714 159.714-58.857 220.286 58.857 220.286 159.714 159.714 220.286 58.857 220.286-58.857 159.714-159.714 58.857-220.286z" horiz-adv-x="878" />
<glyph unicode="&#xe653;" d="M733.714 604.571q0 16-10.286 26.286l-52 51.429q-10.857 10.857-25.714 10.857t-25.714-10.857l-233.143-232.571-129.143 129.143q-10.857 10.857-25.714 10.857t-25.714-10.857l-52-51.429q-10.286-10.286-10.286-26.286 0-15.429 10.286-25.714l206.857-206.857q10.857-10.857 25.714-10.857 15.429 0 26.286 10.857l310.286 310.286q10.286 10.286 10.286 25.714zM877.714 512q0-119.429-58.857-220.286t-159.714-159.714-220.286-58.857-220.286 58.857-159.714 159.714-58.857 220.286 58.857 220.286 159.714 159.714 220.286 58.857 220.286-58.857 159.714-159.714 58.857-220.286z" horiz-adv-x="878" />
<glyph unicode="&#xe654;" d="M512 237.714v109.714q0 8-5.143 13.143t-13.143 5.143h-109.714q-8 0-13.143-5.143t-5.143-13.143v-109.714q0-8 5.143-13.143t13.143-5.143h109.714q8 0 13.143 5.143t5.143 13.143zM658.286 621.714q0 50.286-31.714 93.143t-79.143 66.286-97.143 23.429q-138.857 0-212-121.714-8.571-13.714 4.571-24l75.429-57.143q4-3.429 10.857-3.429 9.143 0 14.286 6.857 30.286 38.857 49.143 52.571 19.429 13.714 49.143 13.714 27.429 0 48.857-14.857t21.429-33.714q0-21.714-11.429-34.857t-38.857-25.714q-36-16-66-49.429t-30-71.714v-20.571q0-8 5.143-13.143t13.143-5.143h109.714q8 0 13.143 5.143t5.143 13.143q0 10.857 12.286 28.286t31.143 28.286q18.286 10.286 28 16.286t26.286 20 25.429 27.429 16 34.571 7.143 46.286zM877.714 512q0-119.429-58.857-220.286t-159.714-159.714-220.286-58.857-220.286 58.857-159.714 159.714-58.857 220.286 58.857 220.286 159.714 159.714 220.286 58.857 220.286-58.857 159.714-159.714 58.857-220.286z" horiz-adv-x="878" />
<glyph unicode="&#xe655;" d="M585.143 237.714v91.429q0 8-5.143 13.143t-13.143 5.143h-54.857v292.571q0 8-5.143 13.143t-13.143 5.143h-182.857q-8 0-13.143-5.143t-5.143-13.143v-91.429q0-8 5.143-13.143t13.143-5.143h54.857v-182.857h-54.857q-8 0-13.143-5.143t-5.143-13.143v-91.429q0-8 5.143-13.143t13.143-5.143h256q8 0 13.143 5.143t5.143 13.143zM512 749.714v91.429q0 8-5.143 13.143t-13.143 5.143h-109.714q-8 0-13.143-5.143t-5.143-13.143v-91.429q0-8 5.143-13.143t13.143-5.143h109.714q8 0 13.143 5.143t5.143 13.143zM877.714 512q0-119.429-58.857-220.286t-159.714-159.714-220.286-58.857-220.286 58.857-159.714 159.714-58.857 220.286 58.857 220.286 159.714 159.714 220.286 58.857 220.286-58.857 159.714-159.714 58.857-220.286z" horiz-adv-x="878" />
<glyph unicode="&#xe656;" d="M684 438.857h-62.286q-14.857 0-25.714 10.857t-10.857 25.714v73.143q0 14.857 10.857 25.714t25.714 10.857h62.286q-18.286 61.714-64.286 107.714t-107.714 64.286v-62.286q0-14.857-10.857-25.714t-25.714-10.857h-73.143q-14.857 0-25.714 10.857t-10.857 25.714v62.286q-61.714-18.286-107.714-64.286t-64.286-107.714h62.286q14.857 0 25.714-10.857t10.857-25.714v-73.143q0-14.857-10.857-25.714t-25.714-10.857h-62.286q18.286-61.714 64.286-107.714t107.714-64.286v62.286q0 14.857 10.857 25.714t25.714 10.857h73.143q14.857 0 25.714-10.857t10.857-25.714v-62.286q61.714 18.286 107.714 64.286t64.286 107.714zM877.714 548.571v-73.143q0-14.857-10.857-25.714t-25.714-10.857h-81.714q-21.143-92-88.286-159.143t-159.143-88.286v-81.714q0-14.857-10.857-25.714t-25.714-10.857h-73.143q-14.857 0-25.714 10.857t-10.857 25.714v81.714q-92 21.143-159.143 88.286t-88.286 159.143h-81.714q-14.857 0-25.714 10.857t-10.857 25.714v73.143q0 14.857 10.857 25.714t25.714 10.857h81.714q21.143 92 88.286 159.143t159.143 88.286v81.714q0 14.857 10.857 25.714t25.714 10.857h73.143q14.857 0 25.714-10.857t10.857-25.714v-81.714q92-21.143 159.143-88.286t88.286-159.143h81.714q14.857 0 25.714-10.857t10.857-25.714z" horiz-adv-x="878" />
<glyph unicode="&#xe657;" d="M626.857 407.429l-83.429-83.429q-5.714-5.714-13.143-5.714t-13.143 5.714l-78.286 78.286-78.286-78.286q-5.714-5.714-13.143-5.714t-13.143 5.714l-83.429 83.429q-5.714 5.714-5.714 13.143t5.714 13.143l78.286 78.286-78.286 78.286q-5.714 5.714-5.714 13.143t5.714 13.143l83.429 83.429q5.714 5.714 13.143 5.714t13.143-5.714l78.286-78.286 78.286 78.286q5.714 5.714 13.143 5.714t13.143-5.714l83.429-83.429q5.714-5.714 5.714-13.143t-5.714-13.143l-78.286-78.286 78.286-78.286q5.714-5.714 5.714-13.143t-5.714-13.143zM749.714 512q0 84.571-41.714 156t-113.143 113.143-156 41.714-156-41.714-113.143-113.143-41.714-156 41.714-156 113.143-113.143 156-41.714 156 41.714 113.143 113.143 41.714 156zM877.714 512q0-119.429-58.857-220.286t-159.714-159.714-220.286-58.857-220.286 58.857-159.714 159.714-58.857 220.286 58.857 220.286 159.714 159.714 220.286 58.857 220.286-58.857 159.714-159.714 58.857-220.286z" horiz-adv-x="878" />
<glyph unicode="&#xe658;" d="M669.143 559.429l-241.143-241.143q-10.857-10.857-25.714-10.857t-25.714 10.857l-168 168q-10.857 10.857-10.857 25.714t10.857 25.714l58.286 58.286q10.857 10.857 25.714 10.857t25.714-10.857l84-84 157.143 157.143q10.857 10.857 25.714 10.857t25.714-10.857l58.286-58.286q10.857-10.857 10.857-25.714t-10.857-25.714zM749.714 512q0 84.571-41.714 156t-113.143 113.143-156 41.714-156-41.714-113.143-113.143-41.714-156 41.714-156 113.143-113.143 156-41.714 156 41.714 113.143 113.143 41.714 156zM877.714 512q0-119.429-58.857-220.286t-159.714-159.714-220.286-58.857-220.286 58.857-159.714 159.714-58.857 220.286 58.857 220.286 159.714 159.714 220.286 58.857 220.286-58.857 159.714-159.714 58.857-220.286z" horiz-adv-x="878" />
<glyph unicode="&#xe659;" d="M749.714 513.714q0 92-49.714 168.571l-430.857-430.286q78.286-50.857 169.714-50.857 63.429 0 120.857 24.857t99.143 66.571 66.286 99.714 24.571 121.429zM178.857 342.857l431.429 430.857q-77.143 52-171.429 52-84.571 0-156-41.714t-113.143-113.714-41.714-156.571q0-92.571 50.857-170.857zM877.714 513.714q0-89.714-34.857-171.429t-93.429-140.571-140-93.714-170.571-34.857-170.571 34.857-140 93.714-93.429 140.571-34.857 171.429 34.857 171.143 93.429 140.286 140 93.714 170.571 34.857 170.571-34.857 140-93.714 93.429-140.286 34.857-171.143z" horiz-adv-x="878" />
<glyph unicode="&#xe65a;" d="M877.714 512v-73.143q0-30.286-18.571-51.714t-48.286-21.429h-402.286l167.429-168q21.714-20.571 21.714-51.429t-21.714-51.429l-42.857-43.429q-21.143-21.143-51.429-21.143-29.714 0-52 21.143l-372 372.571q-21.143 21.143-21.143 51.429 0 29.714 21.143 52l372 371.429q21.714 21.714 52 21.714 29.714 0 51.429-21.714l42.857-42.286q21.714-21.714 21.714-52t-21.714-52l-167.429-167.429h402.286q29.714 0 48.286-21.429t18.571-51.714z" horiz-adv-x="878" />
<glyph unicode="&#xe65b;" d="M841.143 475.429q0-30.857-21.143-52l-372-372q-22.286-21.143-52-21.143-29.143 0-51.429 21.143l-42.857 42.857q-21.714 21.714-21.714 52t21.714 52l167.429 167.429h-402.286q-29.714 0-48.286 21.429t-18.571 51.714v73.143q0 30.286 18.571 51.714t48.286 21.429h402.286l-167.429 168q-21.714 20.571-21.714 51.429t21.714 51.429l42.857 42.857q21.714 21.714 51.429 21.714 30.286 0 52-21.714l372-372q21.143-20 21.143-51.429z" horiz-adv-x="878" />
<glyph unicode="&#xe65c;" d="M920.571 469.143q0-29.143-21.143-51.429l-42.857-42.857q-21.714-21.714-52-21.714-30.857 0-51.429 21.714l-168 167.429v-402.286q0-29.714-21.429-48.286t-51.714-18.571h-73.143q-30.286 0-51.714 18.571t-21.429 48.286v402.286l-168-167.429q-20.571-21.714-51.429-21.714t-51.429 21.714l-42.857 42.857q-21.714 21.714-21.714 51.429 0 30.286 21.714 52l372 372q20 21.143 51.429 21.143 30.857 0 52-21.143l372-372q21.143-22.286 21.143-52z" horiz-adv-x="951" />
<glyph unicode="&#xe65d;" d="M920.571 548.571q0-30.286-21.143-51.429l-372-372.571q-22.286-21.143-52-21.143-30.286 0-51.429 21.143l-372 372.571q-21.714 20.571-21.714 51.429 0 30.286 21.714 52l42.286 42.857q22.286 21.143 52 21.143 30.286 0 51.429-21.143l168-168v402.286q0 29.714 21.714 51.429t51.429 21.714h73.143q29.714 0 51.429-21.714t21.714-51.429v-402.286l168 168q21.143 21.143 51.429 21.143 29.714 0 52-21.143l42.857-42.857q21.143-22.286 21.143-52z" horiz-adv-x="951" />
<glyph unicode="&#xe65e;" d="M1024 658.286q0-14.857-10.857-25.714l-292.571-292.571q-10.857-10.857-25.714-10.857t-25.714 10.857-10.857 25.714v146.286h-128q-56 0-100.286-3.429t-88-12.286-76-24.286-60.286-39.714-45.714-57.714-27.714-79.143-10-103.429q0-31.429 2.857-70.286 0-3.429 1.429-13.429t1.429-15.143q0-8.571-4.857-14.286t-13.429-5.714q-9.143 0-16 9.714-4 5.143-7.429 12.571t-7.714 17.143-6 13.714q-72.571 162.857-72.571 257.714 0 113.714 30.286 190.286 92.571 230.286 500 230.286h128v146.286q0 14.857 10.857 25.714t25.714 10.857 25.714-10.857l292.571-292.571q10.857-10.857 10.857-25.714z" />
<glyph unicode="&#xe65f;" d="M431.429 420.571q0-7.429-5.714-13.143l-189.714-189.714 82.286-82.286q10.857-10.857 10.857-25.714t-10.857-25.714-25.714-10.857h-256q-14.857 0-25.714 10.857t-10.857 25.714v256q0 14.857 10.857 25.714t25.714 10.857 25.714-10.857l82.286-82.286 189.714 189.714q5.714 5.714 13.143 5.714t13.143-5.714l65.143-65.143q5.714-5.714 5.714-13.143zM877.714 914.286v-256q0-14.857-10.857-25.714t-25.714-10.857-25.714 10.857l-82.286 82.286-189.714-189.714q-5.714-5.714-13.143-5.714t-13.143 5.714l-65.143 65.143q-5.714 5.714-5.714 13.143t5.714 13.143l189.714 189.714-82.286 82.286q-10.857 10.857-10.857 25.714t10.857 25.714 25.714 10.857h256q14.857 0 25.714-10.857t10.857-25.714z" horiz-adv-x="878" />
<glyph unicode="&#xe660;" d="M438.857 475.429v-256q0-14.857-10.857-25.714t-25.714-10.857-25.714 10.857l-82.286 82.286-189.714-189.714q-5.714-5.714-13.143-5.714t-13.143 5.714l-65.143 65.143q-5.714 5.714-5.714 13.143t5.714 13.143l189.714 189.714-82.286 82.286q-10.857 10.857-10.857 25.714t10.857 25.714 25.714 10.857h256q14.857 0 25.714-10.857t10.857-25.714zM870.286 859.429q0-7.429-5.714-13.143l-189.714-189.714 82.286-82.286q10.857-10.857 10.857-25.714t-10.857-25.714-25.714-10.857h-256q-14.857 0-25.714 10.857t-10.857 25.714v256q0 14.857 10.857 25.714t25.714 10.857 25.714-10.857l82.286-82.286 189.714 189.714q5.714 5.714 13.143 5.714t13.143-5.714l65.143-65.143q5.714-5.714 5.714-13.143z" horiz-adv-x="878" />
<glyph unicode="&#xe661;" d="M804.571 603.429v-109.714q0-22.857-16-38.857t-38.857-16h-237.714v-237.714q0-22.857-16-38.857t-38.857-16h-109.714q-22.857 0-38.857 16t-16 38.857v237.714h-237.714q-22.857 0-38.857 16t-16 38.857v109.714q0 22.857 16 38.857t38.857 16h237.714v237.714q0 22.857 16 38.857t38.857 16h109.714q22.857 0 38.857-16t16-38.857v-237.714h237.714q22.857 0 38.857-16t16-38.857z" horiz-adv-x="805" />
<glyph unicode="&#xe662;" d="M804.571 603.429v-109.714q0-22.857-16-38.857t-38.857-16h-694.857q-22.857 0-38.857 16t-16 38.857v109.714q0 22.857 16 38.857t38.857 16h694.857q22.857 0 38.857-16t16-38.857z" horiz-adv-x="805" />
<glyph unicode="&#xe663;" d="M846.857 424q26.286-14.857 34-44.286t-7.143-55.714l-36.571-62.857q-14.857-26.286-44.286-34t-55.714 7.143l-152 87.429v-175.429q0-29.714-21.714-51.429t-51.429-21.714h-73.143q-29.714 0-51.429 21.714t-21.714 51.429v175.429l-152-87.429q-26.286-14.857-55.714-7.143t-44.286 34l-36.571 62.857q-14.857 26.286-7.143 55.714t34 44.286l152 88-152 88q-26.286 14.857-34 44.286t7.143 55.714l36.571 62.857q14.857 26.286 44.286 34t55.714-7.143l152-87.429v175.429q0 29.714 21.714 51.429t51.429 21.714h73.143q29.714 0 51.429-21.714t21.714-51.429v-175.429l152 87.429q26.286 14.857 55.714 7.143t44.286-34l36.571-62.857q14.857-26.286 7.143-55.714t-34-44.286l-152-88z" horiz-adv-x="951" />
<glyph unicode="&#xe664;" d="M438.857 950.857q119.429 0 220.286-58.857t159.714-159.714 58.857-220.286-58.857-220.286-159.714-159.714-220.286-58.857-220.286 58.857-159.714 159.714-58.857 220.286 58.857 220.286 159.714 159.714 220.286 58.857zM512 238.286v108.571q0 8-5.143 13.429t-12.571 5.429h-109.714q-7.429 0-13.143-5.714t-5.714-13.143v-108.571q0-7.429 5.714-13.143t13.143-5.714h109.714q7.429 0 12.571 5.429t5.143 13.429zM510.857 434.857l10.286 354.857q0 6.857-5.714 10.286-5.714 4.571-13.714 4.571h-125.714q-8 0-13.714-4.571-5.714-3.429-5.714-10.286l9.714-354.857q0-5.714 5.714-10t13.714-4.286h105.714q8 0 13.429 4.286t6 10z" horiz-adv-x="878" />
<glyph unicode="&#xe665;" d="M530.286 249.143v409.143h-182.857v-409.143q0-14.286 10.286-22t26.286-7.714h109.714q16 0 26.286 7.714t10.286 22zM269.714 731.429h111.429l-72 92q-14.857 17.714-39.429 17.714-22.857 0-38.857-16t-16-38.857 16-38.857 38.857-16zM662.857 786.286q0 22.857-16 38.857t-38.857 16q-24.571 0-39.429-17.714l-71.429-92h110.857q22.857 0 38.857 16t16 38.857zM877.714 640v-182.857q0-8-5.143-13.143t-13.143-5.143h-54.857v-237.714q0-22.857-16-38.857t-38.857-16h-621.714q-22.857 0-38.857 16t-16 38.857v237.714h-54.857q-8 0-13.143 5.143t-5.143 13.143v182.857q0 8 5.143 13.143t13.143 5.143h251.429q-53.143 0-90.571 37.429t-37.429 90.571 37.429 90.571 90.571 37.429q61.143 0 96-44l73.143-94.286 73.143 94.286q34.857 44 96 44 53.143 0 90.571-37.429t37.429-90.571-37.429-90.571-90.571-37.429h251.429q8 0 13.143-5.143t5.143-13.143z" horiz-adv-x="878" />
<glyph unicode="&#xe666;" d="M731.429 621.714q0 14.857-10.857 25.714t-25.714 10.857q-98.286 0-181.714-28.286t-148.286-76.571-134.571-125.429q-10.857-12-10.857-25.714 0-14.857 10.857-25.714t25.714-10.857q13.714 0 25.714 10.857 15.429 13.714 42.286 40.571t38.286 37.714q78.286 70.857 153.429 100.571t179.143 29.714q14.857 0 25.714 10.857t10.857 25.714zM1024 734.857q0-54.286-11.429-110.286-26.286-128-105.429-218.857t-204.286-153.143q-122.286-61.714-250.286-61.714-84.571 0-163.429 26.857-8.571 2.857-50.286 24t-54.857 21.143q-9.143 0-22.571-18.286t-25.714-40-30-40-34.286-18.286q-17.143 0-29.143 6.286t-17.714 13.714-15.429 24q-1.143 2.286-3.429 6.286t-3.143 5.714-1.714 5.429-0.857 7.714q0 20 17.714 42t38.857 37.429 38.857 32 17.714 27.429q0 2.286-8 21.714t-9.143 25.143q-5.143 29.143-5.143 59.429 0 65.714 24.857 125.714t68 105.429 97.429 79.429 116.571 54.571q31.429 10.286 82.857 14.571t102.571 5.143 102 3.429 93.429 13.714 64.857 32.286l16.857 16.857t16.857 16 15.429 11.429 20.857 9.143 24.857 2.571q22.286 0 40.286-26.286t27.143-64 13.714-70.857 4.571-54.857z" />
<glyph unicode="&#xe667;" d="M804.571 54.857v-36.571q0-7.429-5.429-12.857t-12.857-5.429h-768q-7.429 0-12.857 5.429t-5.429 12.857v36.571q0 7.429 5.429 12.857t12.857 5.429h768q7.429 0 12.857-5.429t5.429-12.857zM658.286 658.286q0-44.571-14-82.286t-36.571-64.286-50-50.286-54.857-44.286-50-41.143-36.571-46.571-14-55.143q0-54.857 38.286-128l-2.286 0.571 0.571-0.571q-51.429 23.429-91.429 47.429t-79.143 57.143-64.857 70-41.429 86-15.714 105.143q0 44.571 14 82.286t36.571 64.286 50 50.286 54.857 44.286 50 41.143 36.571 46.571 14 55.143q0 53.714-37.714 128l1.714-0.571-0.571 0.571q51.429-23.429 91.429-47.429t79.143-57.143 64.857-70 41.429-86 15.714-105.143z" horiz-adv-x="805" />
<glyph unicode="&#xe668;" d="M950.857 475.429q-86.857 134.857-217.714 201.714 34.857-59.429 34.857-128.571 0-105.714-75.143-180.857t-180.857-75.143-180.857 75.143-75.143 180.857q0 69.143 34.857 128.571-130.857-66.857-217.714-201.714 76-117.143 190.571-186.571t248.286-69.429 248.286 69.429 190.571 186.571zM539.429 694.857q0 11.429-8 19.429t-19.429 8q-71.429 0-122.571-51.143t-51.143-122.571q0-11.429 8-19.429t19.429-8 19.429 8 8 19.429q0 49.143 34.857 84t84 34.857q11.429 0 19.429 8t8 19.429zM1024 475.429q0-19.429-11.429-39.429-80-131.429-215.143-210.571t-285.429-79.143-285.429 79.429-215.143 210.286q-11.429 20-11.429 39.429t11.429 39.429q80 130.857 215.143 210.286t285.429 79.429 285.429-79.429 215.143-210.286q11.429-20 11.429-39.429z" />
<glyph unicode="&#xe669;" d="M317.143 261.143l44.571 80.571q-49.714 36-77.714 90.857t-28 116q0 69.143 34.857 128.571-130.857-66.857-217.714-201.714 95.429-147.429 244-214.286zM539.429 694.857q0 11.429-8 19.429t-19.429 8q-71.429 0-122.571-51.143t-51.143-122.571q0-11.429 8-19.429t19.429-8 19.429 8 8 19.429q0 49.143 34.857 84t84 34.857q11.429 0 19.429 8t8 19.429zM746.857 804q0-4-0.571-5.143-60-107.429-180-323.429t-180.571-324l-28-50.857q-5.714-9.143-16-9.143-6.857 0-76.571 40-9.143 5.714-9.143 16 0 6.857 25.143 49.714-81.714 37.143-150.571 98.857t-119.143 140q-11.429 17.714-11.429 39.429t11.429 39.429q87.429 134.286 217.143 212t283.429 77.714q50.857 0 102.857-9.714l30.857 55.429q5.714 9.143 16 9.143 2.857 0 10.286-3.429t17.714-8.857 18.857-10.571 18-10.571 11.143-6.571q9.143-5.714 9.143-15.429zM768 548.571q0-79.429-45.143-144.857t-119.429-94l160 286.857q4.571-25.714 4.571-48zM1024 475.429q0-20-11.429-39.429-22.286-36.571-62.286-82.857-85.714-98.286-198.571-152.571t-239.714-54.286l42.286 75.429q121.143 10.286 224.286 78.286t172.286 175.429q-65.714 102.286-161.143 168l36 64q54.286-36.571 104.286-87.429t82.571-105.143q11.429-19.429 11.429-39.429z" />
<glyph unicode="&#xe66a;" d="M585.143 238.286v108.571q0 8-5.429 13.429t-12.857 5.429h-109.714q-7.429 0-12.857-5.429t-5.429-13.429v-108.571q0-8 5.429-13.429t12.857-5.429h109.714q7.429 0 12.857 5.429t5.429 13.429zM584 452l10.286 262.286q0 6.857-5.714 10.857-7.429 6.286-13.714 6.286h-125.714q-6.286 0-13.714-6.286-5.714-4-5.714-12l9.714-261.143q0-5.714 5.714-9.429t13.714-3.714h105.714q8 0 13.429 3.714t6 9.429zM576 985.714l438.857-804.571q20-36-1.143-72-9.714-16.571-26.571-26.286t-36.286-9.714h-877.714q-19.429 0-36.286 9.714t-26.571 26.286q-21.143 36-1.143 72l438.857 804.571q9.714 17.714 26.857 28t37.143 10.286 37.143-10.286 26.857-28z" />
<glyph unicode="&#xe66b;" d="M786.286 932.571q25.143-29.714 6.857-84.571t-61.714-98.286l-92-92 91.429-397.714q2.857-10.857-6.857-18.857l-73.143-54.857q-4-3.429-10.857-3.429-2.286 0-4 0.571-8.571 1.714-12 9.143l-159.429 290.286-148-148 30.286-110.857q2.857-9.714-4.571-17.714l-54.857-54.857q-5.143-5.143-13.143-5.143h-1.143q-8.571 1.143-13.714 7.429l-108 144-144 108q-6.286 4-7.429 13.143-0.571 7.429 5.143 14.286l54.857 55.429q5.143 5.143 13.143 5.143 3.429 0 4.571-0.571l110.857-30.286 148 148-290.286 159.429q-8 4.571-9.714 13.714-1.143 9.143 5.143 15.429l73.143 73.143q8 7.429 17.143 4.571l380-90.857 91.429 91.429q43.429 43.429 98.286 61.714t84.571-6.857z" horiz-adv-x="805" />
<glyph unicode="&#xe66c;" d="M73.143 73.143h164.571v164.571h-164.571v-164.571zM274.286 73.143h182.857v164.571h-182.857v-164.571zM73.143 274.286h164.571v182.857h-164.571v-182.857zM274.286 274.286h182.857v182.857h-182.857v-182.857zM73.143 493.714h164.571v164.571h-164.571v-164.571zM493.714 73.143h182.857v164.571h-182.857v-164.571zM274.286 493.714h182.857v164.571h-182.857v-164.571zM713.143 73.143h164.571v164.571h-164.571v-164.571zM493.714 274.286h182.857v182.857h-182.857v-182.857zM292.571 768v164.571q0 7.429-5.429 12.857t-12.857 5.429h-36.571q-7.429 0-12.857-5.429t-5.429-12.857v-164.571q0-7.429 5.429-12.857t12.857-5.429h36.571q7.429 0 12.857 5.429t5.429 12.857zM713.143 274.286h164.571v182.857h-164.571v-182.857zM493.714 493.714h182.857v164.571h-182.857v-164.571zM713.143 493.714h164.571v164.571h-164.571v-164.571zM731.429 768v164.571q0 7.429-5.429 12.857t-12.857 5.429h-36.571q-7.429 0-12.857-5.429t-5.429-12.857v-164.571q0-7.429 5.429-12.857t12.857-5.429h36.571q7.429 0 12.857 5.429t5.429 12.857zM950.857 804.571v-731.429q0-29.714-21.714-51.429t-51.429-21.714h-804.571q-29.714 0-51.429 21.714t-21.714 51.429v731.429q0 29.714 21.714 51.429t51.429 21.714h73.143v54.857q0 37.714 26.857 64.571t64.571 26.857h36.571q37.714 0 64.571-26.857t26.857-64.571v-54.857h219.429v54.857q0 37.714 26.857 64.571t64.571 26.857h36.571q37.714 0 64.571-26.857t26.857-64.571v-54.857h73.143q29.714 0 51.429-21.714t21.714-51.429z" horiz-adv-x="951" />
<glyph unicode="&#xe66d;" d="M380.571 749.143q-34.286-52.571-78.286-156-12.571 25.714-21.143 41.429t-23.143 36.286-29.143 32.286-36 20-46.571 8.286h-128q-8 0-13.143 5.143t-5.143 13.143v109.714q0 8 5.143 13.143t13.143 5.143h128q142.857 0 234.286-128.571zM1024 292.571q0-8-5.143-13.143l-182.857-182.857q-5.143-5.143-13.143-5.143-7.429 0-12.857 5.429t-5.429 12.857v109.714q-18.286 0-48.571-0.286t-46.286-0.571-41.714 0.571-40.571 2.857-36.571 6-36 10.571-33.143 16.286-33.714 22.857-31.429 30.571-32 39.714q33.714 53.143 77.714 156 12.571-25.714 21.143-41.429t23.143-36.286 29.143-32.286 36-20 46.571-8.286h146.286v109.714q0 8 5.143 13.143t13.143 5.143q6.857 0 13.714-5.714l182.286-182.286q5.143-5.143 5.143-13.143zM1024 804.571q0-8-5.143-13.143l-182.857-182.857q-5.143-5.143-13.143-5.143-7.429 0-12.857 5.429t-5.429 12.857v109.714h-146.286q-27.429 0-49.714-8.571t-39.429-25.714-29.143-35.143-25.714-44.286q-18.286-35.429-44.571-97.714-16.571-37.714-28.286-63.429t-30.857-60-36.571-57.143-42.286-47.429-51.429-39.143-60.857-24-73.143-9.429h-128q-8 0-13.143 5.143t-5.143 13.143v109.714q0 8 5.143 13.143t13.143 5.143h128q27.429 0 49.714 8.571t39.429 25.714 29.143 35.143 25.714 44.286q18.286 35.429 44.571 97.714 16.571 37.714 28.286 63.429t30.857 60 36.571 57.143 42.286 47.429 51.429 39.143 60.857 24 73.143 9.429h146.286v109.714q0 8 5.143 13.143t13.143 5.143q6.857 0 13.714-5.714l182.286-182.286q5.143-5.143 5.143-13.143z" />
<glyph unicode="&#xe66e;" d="M1024 512q0-99.429-68.571-183.714t-186.286-133.143-257.143-48.857q-40 0-82.857 4.571-113.143-100-262.857-138.286-28-8-65.143-12.571-9.714-1.143-17.429 5.143t-10 16.571v0.571q-1.714 2.286-0.286 6.857t1.143 5.714 2.571 5.429l3.429 5.143t4 4.857 4.571 5.143q4 4.571 17.714 19.714t19.714 21.714 17.714 22.571 18.571 29.143 15.429 33.714 14.857 43.429q-89.714 50.857-141.429 125.714t-51.714 160.571q0 74.286 40.571 142t109.143 116.857 163.429 78 198.857 28.857q139.429 0 257.143-48.857t186.286-133.143 68.571-183.714z" />
<glyph unicode="&#xe66f;" d="M877.714 548.571v-73.143q0-114.857-56.286-206.857t-156.571-143.714-226-51.714-226 51.714-156.571 143.714-56.286 206.857v73.143q0 14.857 10.857 25.714t25.714 10.857h219.429q14.857 0 25.714-10.857t10.857-25.714v-73.143q0-29.714 13.429-51.429t30.571-32.571 40.571-17.143 36.571-7.429 25.143-1.143 25.143 1.143 36.571 7.429 40.571 17.143 30.571 32.571 13.429 51.429v73.143q0 14.857 10.857 25.714t25.714 10.857h219.429q14.857 0 25.714-10.857t10.857-25.714zM292.571 914.286v-219.429q0-14.857-10.857-25.714t-25.714-10.857h-219.429q-14.857 0-25.714 10.857t-10.857 25.714v219.429q0 14.857 10.857 25.714t25.714 10.857h219.429q14.857 0 25.714-10.857t10.857-25.714zM877.714 914.286v-219.429q0-14.857-10.857-25.714t-25.714-10.857h-219.429q-14.857 0-25.714 10.857t-10.857 25.714v219.429q0 14.857 10.857 25.714t25.714 10.857h219.429q14.857 0 25.714-10.857t10.857-25.714z" horiz-adv-x="878" />
<glyph unicode="&#xe670;" d="M920.571 329.143q0-30.286-21.143-51.429l-42.857-42.857q-21.714-21.714-52-21.714-30.857 0-51.429 21.714l-277.714 277.143-277.714-277.143q-20.571-21.714-51.429-21.714t-51.429 21.714l-42.857 42.857q-21.714 20.571-21.714 51.429 0 30.286 21.714 52l372 372q21.143 21.143 51.429 21.143 29.714 0 52-21.143l371.429-372q21.714-21.714 21.714-52z" horiz-adv-x="951" />
<glyph unicode="&#xe671;" d="M920.571 621.714q0-30.286-21.143-51.429l-372-372q-21.714-21.714-52-21.714-30.857 0-51.429 21.714l-372 372q-21.714 20.571-21.714 51.429 0 30.286 21.714 52l42.286 42.857q22.286 21.143 52 21.143 30.286 0 51.429-21.143l277.714-277.714 277.714 277.714q21.143 21.143 51.429 21.143 29.714 0 52-21.143l42.857-42.857q21.143-22.286 21.143-52z" horiz-adv-x="951" />
<glyph unicode="&#xe672;" d="M731.429 164.571q0-7.429-5.429-12.857t-12.857-5.429h-548.571q-4.571 0-7.714 1.143t-5.143 4-3.143 4.571-1.714 6.571-0.571 6.571v342.858h-109.714q-14.857 0-25.714 10.857t-10.857 25.714q0 13.714 8.571 23.429l182.857 219.429q10.857 12.571 28 12.571t28-12.571l182.857-219.429q8.571-9.714 8.571-23.429 0-14.857-10.857-25.714t-25.714-10.857h-109.714v-219.429h329.143q9.143 0 14.286-6.286l91.429-109.714q4-6.286 4-12zM1097.143 402.286q0-13.714-8.571-23.429l-182.857-219.429q-11.429-13.143-28-13.143t-28 13.143l-182.857 219.429q-8.571 9.714-8.571 23.429 0 14.857 10.857 25.714t25.714 10.857h109.714v219.429h-329.143q-9.143 0-14.286 6.857l-91.429 109.714q-4 5.143-4 11.429 0 7.429 5.429 12.857t12.857 5.429h548.571q4.571 0 7.714-1.143t5.143-4 3.143-4.571 1.714-6.571 0.571-6.571v-342.858h109.714q14.857 0 25.714-10.857t10.857-25.714z" horiz-adv-x="1097" />
<glyph unicode="&#xe673;" d="M365.714 146.286q0-30.286-21.429-51.714t-51.714-21.429-51.714 21.429-21.429 51.714 21.429 51.714 51.714 21.429 51.714-21.429 21.429-51.714zM877.714 146.286q0-30.286-21.429-51.714t-51.714-21.429-51.714 21.429-21.429 51.714 21.429 51.714 51.714 21.429 51.714-21.429 21.429-51.714zM950.857 768v-292.571q0-13.714-9.143-24.286t-23.429-12.286l-596.571-69.714q0.571-4 2.571-12.286t3.429-15.143 1.429-12.571q0-9.143-13.714-36.571h525.714q14.857 0 25.714-10.857t10.857-25.714-10.857-25.714-25.714-10.857h-585.143q-14.857 0-25.714 10.857t-10.857 25.714q0 8 6.286 22.571t16.857 34 11.714 21.714l-101.143 470.286h-116.571q-14.857 0-25.714 10.857t-10.857 25.714 10.857 25.714 25.714 10.857h146.286q9.143 0 16.286-3.714t11.429-8.857 7.429-14 4.286-15.143 3.143-16.857 2.571-14.571h686.286q14.857 0 25.714-10.857t10.857-25.714z" horiz-adv-x="951" />
<glyph unicode="&#xe674;" d="M950.857 676.571v-402.286q0-52.571-37.714-90.286t-90.286-37.714h-694.857q-52.571 0-90.286 37.714t-37.714 90.286v548.571q0 52.571 37.714 90.286t90.286 37.714h182.857q52.571 0 90.286-37.714t37.714-90.286v-18.286h384q52.571 0 90.286-37.714t37.714-90.286z" horiz-adv-x="951" />
<glyph unicode="&#xe675;" d="M1073.714 480q0-17.714-17.714-37.714l-192-226.286q-24.571-29.143-68.857-49.429t-82-20.286h-621.714q-19.429 0-34.571 7.429t-15.143 24.571q0 17.714 17.714 37.714l192 226.286q24.571 29.143 68.857 49.429t82 20.286h621.714q19.429 0 34.571-7.429t15.143-24.571zM877.714 676.571v-91.429h-475.429q-53.714 0-112.571-27.143t-93.714-68.286l-195.428-229.715q0 2.286-0.286 7.143t-0.286 7.143v548.571q0 52.571 37.714 90.286t90.286 37.714h182.857q52.571 0 90.286-37.714t37.714-90.286v-18.286h310.857q52.571 0 90.286-37.714t37.714-90.286z" horiz-adv-x="1097" />
<glyph unicode="&#xe676;" d="M402.286 841.143q0-14.857-10.857-25.714t-25.714-10.857h-73.143v-585.143h73.143q14.857 0 25.714-10.857t10.857-25.714-10.857-25.714l-146.286-146.286q-10.857-10.857-25.714-10.857t-25.714 10.857l-146.286 146.286q-10.857 10.857-10.857 25.714t10.857 25.714 25.714 10.857h73.143v585.143h-73.143q-14.857 0-25.714 10.857t-10.857 25.714 10.857 25.714l146.286 146.286q10.857 10.857 25.714 10.857t25.714-10.857l146.286-146.286q10.857-10.857 10.857-25.714z" horiz-adv-x="439" />
<glyph unicode="&#xe677;" d="M1024 512q0-14.857-10.857-25.714l-146.286-146.286q-10.857-10.857-25.714-10.857t-25.714 10.857-10.857 25.714v73.143h-585.143v-73.143q0-14.857-10.857-25.714t-25.714-10.857-25.714 10.857l-146.286 146.286q-10.857 10.857-10.857 25.714t10.857 25.714l146.286 146.286q10.857 10.857 25.714 10.857t25.714-10.857 10.857-25.714v-73.143h585.143v73.143q0 14.857 10.857 25.714t25.714 10.857 25.714-10.857l146.286-146.286q10.857-10.857 10.857-25.714z" />
<glyph unicode="&#xe678;" d="M292.571 438.857v-219.429h-146.286v219.429h146.286zM512 731.429v-512h-146.286v512h146.286zM731.429 585.143v-365.714h-146.286v365.714h146.286zM950.857 804.571v-585.143h-146.286v585.143h146.286zM1024 164.571v694.857q0 7.429-5.429 12.857t-12.857 5.429h-914.286q-7.429 0-12.857-5.429t-5.429-12.857v-694.857q0-7.429 5.429-12.857t12.857-5.429h914.286q7.429 0 12.857 5.429t5.429 12.857zM1097.143 859.429v-694.857q0-37.714-26.857-64.571t-64.571-26.857h-914.286q-37.714 0-64.571 26.857t-26.857 64.571v694.857q0 37.714 26.857 64.571t64.571 26.857h914.286q37.714 0 64.571-26.857t26.857-64.571z" horiz-adv-x="1097" />
<glyph unicode="&#xe679;" d="M731.429 675.429q-32-14.286-69.143-19.429 38.857 22.857 53.143 66.857-37.143-21.714-76.571-29.143-34.857 37.714-87.429 37.714-49.714 0-84.857-35.143t-35.143-84.857q0-16.571 2.857-27.429-73.714 4-138.286 37.143t-109.714 88.571q-16.571-28.571-16.571-60.571 0-65.143 52-100-26.857 0.571-57.143 14.857v-1.143q0-42.857 28.571-76.286t70.286-41.429q-16.571-4.571-29.143-4.571-7.429 0-22.286 2.286 12-36 42.571-59.429t69.429-24q-66.286-51.429-149.143-51.429-14.857 0-28.571 1.714 84.571-53.714 184-53.714 64 0 120 20.286t96 54.286 68.857 78.286 42.857 92.571 14 96.286q0 10.286-0.571 15.429 36 25.714 60 62.286zM877.714 786.286v-548.571q0-68-48.286-116.286t-116.286-48.286h-548.571q-68 0-116.286 48.286t-48.286 116.286v548.571q0 68 48.286 116.286t116.286 48.286h548.571q68 0 116.286-48.286t48.286-116.286z" horiz-adv-x="878" />
<glyph unicode="&#xe67a;" d="M746.857 499.429l13.143 125.143h-113.143v62.286q0 28 8.857 39.143t40.857 11.143h62.857v125.143h-100q-86.857 0-124.571-41.143t-37.714-121.714v-74.857h-74.857v-125.143h74.857v-362.857h149.714v362.857h100zM877.714 786.286v-548.571q0-68-48.286-116.286t-116.286-48.286h-548.571q-68 0-116.286 48.286t-48.286 116.286v548.571q0 68 48.286 116.286t116.286 48.286h548.571q68 0 116.286-48.286t48.286-116.286z" horiz-adv-x="878" />
<glyph unicode="&#xe67b;" d="M530.286 548.571q0 8-5.143 13.143t-13.143 5.143q-37.714 0-64.571-26.857t-26.857-64.571q0-8 5.143-13.143t13.143-5.143 13.143 5.143 5.143 13.143q0 22.857 16 38.857t38.857 16q8 0 13.143 5.143t5.143 13.143zM658.286 474.286q0-60.571-42.857-103.429t-103.429-42.857-103.429 42.857-42.857 103.429 42.857 103.429 103.429 42.857 103.429-42.857 42.857-103.429zM73.143 146.286h877.714v73.143h-877.714v-73.143zM731.429 474.286q0 90.857-64.286 155.143t-155.143 64.286-155.143-64.286-64.286-155.143 64.286-155.143 155.143-64.286 155.143 64.286 64.286 155.143zM146.286 841.143h219.429v73.143h-219.429v-73.143zM73.143 731.429h877.714v146.286h-473.143l-36.571-73.143h-368v-73.143zM1024 877.714v-731.429q0-30.286-21.429-51.714t-51.714-21.429h-877.714q-30.286 0-51.714 21.429t-21.429 51.714v731.429q0 30.286 21.429 51.714t51.714 21.429h877.714q30.286 0 51.714-21.429t21.429-51.714z" />
<glyph unicode="&#xe67c;" d="M475.429 731.429q0 45.714-32 77.714t-77.714 32-77.714-32-32-77.714q0-24 10.857-47.429-23.429 10.857-47.429 10.857-45.714 0-77.714-32t-32-77.714 32-77.714 77.714-32 77.714 32 32 77.714q0 24-10.857 47.429 23.429-10.857 47.429-10.857 45.714 0 77.714 32t32 77.714zM961.714 329.143q0-9.714-28-37.714t-37.714-28q-5.143 0-16.286 9.143t-20.857 18.857-22 22.857-14 14.857l-54.857-54.857 125.714-125.714q16-16 16-38.857 0-24-22.286-46.286t-46.286-22.286q-22.857 0-38.857 16l-383.429 383.429q-100.571-74.857-208.571-74.857-93.143 0-151.714 58.571t-58.571 151.714q0 91.429 54.286 178.857t141.714 141.714 178.857 54.286q93.143 0 151.714-58.571t58.571-151.714q0-108-74.857-208.571l202.857-202.857 54.857 54.857q-1.714 1.714-14.857 14t-22.857 22-18.857 20.857-9.143 16.286q0 9.714 28 37.714t37.714 28q7.429 0 13.143-5.714 3.429-3.429 26.286-25.429t46.857-45.429 49.429-49.143 41.714-44.571 16.286-23.429z" />
<glyph unicode="&#xe67d;" d="M512 512q0 60.571-42.857 103.429t-103.429 42.857-103.429-42.857-42.857-103.429 42.857-103.429 103.429-42.857 103.429 42.857 42.857 103.429zM950.857 219.429q0 29.714-21.714 51.429t-51.429 21.714-51.429-21.714-21.714-51.429q0-30.286 21.429-51.714t51.714-21.429 51.714 21.429 21.429 51.714zM950.857 804.571q0 29.714-21.714 51.429t-51.429 21.714-51.429-21.714-21.714-51.429q0-30.286 21.429-51.714t51.714-21.429 51.714 21.429 21.429 51.714zM731.429 564v-105.714q0-5.714-4-11.143t-9.143-6l-88.571-13.714q-6.286-20-18.286-43.429 19.429-27.429 51.429-65.714 4-5.714 4-11.429 0-6.857-4-10.857-13.143-17.143-47.143-51.143t-44.857-34q-6.286 0-12 4l-65.714 51.429q-21.143-10.857-44-17.714-6.286-61.714-13.143-88.571-4-13.714-17.143-13.714h-106.286q-6.286 0-11.429 4.286t-5.714 10l-13.143 87.429q-19.429 5.714-42.857 17.714l-67.429-50.857q-4-4-11.429-4-6.286 0-12 4.571-82.286 76-82.286 91.429 0 5.143 4 10.857 5.714 8 23.429 30.286t26.857 34.857q-13.143 25.143-20 46.857l-86.857 13.714q-5.714 0.571-9.714 5.429t-4 11.143v105.714q0 5.714 4 11.143t9.143 6l88.571 13.714q6.286 20 18.286 43.429-19.429 27.429-51.429 65.714-4 6.286-4 11.429 0 6.857 4 11.429 12.571 17.143 46.857 50.857t45.143 33.714q6.286 0 12-4l65.714-51.429q19.429 10.286 44 18.286 6.286 61.714 13.143 88 4 13.714 17.143 13.714h106.286q6.286 0 11.429-4.286t5.714-10l13.143-87.429q19.429-5.714 42.857-17.714l67.429 50.857q4.571 4 11.429 4 6.286 0 12-4.571 82.286-76 82.286-91.429 0-5.143-4-10.857-6.857-9.143-24-30.857t-25.714-34.286q13.143-27.429 19.429-46.857l86.857-13.143q5.714-1.143 9.714-6t4-11.143zM1097.143 259.429v-80q0-9.143-85.143-17.714-6.857-15.429-17.143-29.714 29.143-64.571 29.143-78.857 0-2.286-2.286-4-69.714-40.571-70.857-40.571-4.571 0-26.286 26.857t-29.714 38.857q-11.429-1.143-17.143-1.143t-17.143 1.143q-8-12-29.714-38.857t-26.286-26.857q-1.143 0-70.857 40.571-2.286 1.714-2.286 4 0 14.286 29.143 78.857-10.286 14.286-17.143 29.714-85.143 8.571-85.143 17.714v80q0 9.143 85.143 17.714 7.429 16.571 17.143 29.714-29.143 64.571-29.143 78.857 0 2.286 2.286 4 2.286 1.143 20 11.429t33.714 19.429 17.143 9.143q4.571 0 26.286-26.571t29.714-38.571q11.429 1.143 17.143 1.143t17.143-1.143q29.143 40.571 52.571 64l3.429 1.143q2.286 0 70.857-40 2.286-1.714 2.286-4 0-14.286-29.143-78.857 9.714-13.143 17.143-29.714 85.143-8.571 85.143-17.714zM1097.143 844.571v-80q0-9.143-85.143-17.714-6.857-15.429-17.143-29.714 29.143-64.571 29.143-78.857 0-2.286-2.286-4-69.714-40.571-70.857-40.571-4.571 0-26.286 26.857t-29.714 38.857q-11.429-1.143-17.143-1.143t-17.143 1.143q-8-12-29.714-38.857t-26.286-26.857q-1.143 0-70.857 40.571-2.286 1.714-2.286 4 0 14.286 29.143 78.857-10.286 14.286-17.143 29.714-85.143 8.571-85.143 17.714v80q0 9.143 85.143 17.714 7.429 16.571 17.143 29.714-29.143 64.571-29.143 78.857 0 2.286 2.286 4 2.286 1.143 20 11.429t33.714 19.429 17.143 9.143q4.571 0 26.286-26.571t29.714-38.571q11.429 1.143 17.143 1.143t17.143-1.143q29.143 40.571 52.571 64l3.429 1.143q2.286 0 70.857-40 2.286-1.714 2.286-4 0-14.286-29.143-78.857 9.714-13.143 17.143-29.714 85.143-8.571 85.143-17.714z" horiz-adv-x="1097" />
<glyph unicode="&#xe67e;" d="M804.571 585.143q0-79.429-53.714-146.857t-146.571-106.571-202-39.143q-49.143 0-100.571 9.143-70.857-50.286-158.857-73.143-20.571-5.143-49.143-9.143h-1.714q-6.286 0-11.714 4.571t-6.571 12q-0.571 1.714-0.571 3.714t0.286 3.714 1.143 3.429l1.429 2.857t2 3.143 2.286 2.857 2.571 2.857 2.286 2.571q2.857 3.429 13.143 14.286t14.857 16.857 12.857 16.571 14.286 22 11.714 25.143q-70.857 41.143-111.429 101.143t-40.571 128q0 79.429 53.714 146.857t146.571 106.571 202 39.143 202-39.143 146.571-106.571 53.714-146.857zM1024 438.857q0-68.571-40.571-128.286t-111.429-100.857q5.714-13.714 11.714-25.143t14.286-22 12.857-16.571 14.857-16.857 13.143-14.286q0.571-0.571 2.286-2.571t2.571-2.857 2.286-2.857 2-3.143l1.429-2.857t1.143-3.429 0.286-3.714-0.571-3.714q-1.714-8-7.429-12.571t-12.571-4q-28.571 4-49.143 9.143-88 22.857-158.857 73.143-51.429-9.143-100.571-9.143-154.857 0-269.714 75.429 33.143-2.286 50.286-2.286 92 0 176.571 25.714t150.857 73.714q71.429 52.571 109.714 121.143t38.286 145.143q0 44-13.143 86.857 73.714-40.571 116.571-101.714t42.857-131.429z" />
<glyph unicode="&#xe67f;" d="M146.286 256q0 14.857-10.857 25.714t-25.714 10.857-25.714-10.857-10.857-25.714 10.857-25.714 25.714-10.857 25.714 10.857 10.857 25.714zM804.571 585.143q0 29.143-22.286 51.143t-50.857 22h-201.143q0 33.143 27.429 91.143t27.429 91.714q0 56-18.286 82.857t-73.143 26.857q-14.857-14.857-21.714-48.571t-17.429-71.714-34-62.571q-12.571-13.143-44-52-2.286-2.857-13.143-17.143t-18-23.429-19.714-24.286-22.857-25.143-22-20.286-22.857-15.429-20.286-5.143h-18.286v-365.714h18.286q7.429 0 18-1.714t18.857-3.714 21.714-6.286 20-6.571 20.286-7.143 16.571-6q120.571-41.714 195.429-41.714h69.143q109.714 0 109.714 95.429 0 14.857-2.857 32 17.143 9.143 27.143 30t10 42-10.286 39.429q30.286 28.571 30.286 68 0 14.286-5.714 31.714t-14.286 27.143q18.286 0.571 30.571 26.857t12.286 46.286zM877.714 585.714q0-50.857-28-93.143 5.143-18.857 5.143-39.429 0-44-21.714-82.286 1.714-12 1.714-24.571 0-57.714-34.286-101.714 0.571-79.429-48.571-125.429t-129.714-46h-73.714q-54.857 0-108.286 12.857t-123.714 37.429q-66.286 22.857-78.857 22.857h-164.571q-30.286 0-51.714 21.429t-21.429 51.714v365.714q0 30.286 21.429 51.714t51.714 21.429h156.571q20.571 13.714 78.286 88.571 33.143 42.857 61.143 73.143 13.714 14.286 20.286 48.857t17.429 72.286 35.429 61.714q22.286 21.143 51.429 21.143 48 0 86.286-18.571t58.286-58 20-106.286q0-53.143-27.429-109.714h100.571q59.429 0 102.857-43.429t43.429-102.286z" horiz-adv-x="878" />
</font>
</defs>
</svg>
